<svg width="497" height="497" viewBox="0 0 497 497" fill="none" xmlns="http://www.w3.org/2000/svg">
<path d="M42.9148 394.732C53.447 386.17 65.6438 380.511 77.5835 374.39C84.9026 370.639 92.6197 367.377 97.8081 360.48C98.6575 359.349 99.3661 358.117 100.181 356.957C101.691 354.797 101.526 353.04 99.9679 350.759C90.7026 337.159 91.0666 320.609 100.856 308.999C104.006 305.262 107.636 301.913 111.092 298.433C117.324 292.153 123.532 285.843 129.856 279.66C142.043 267.754 154.356 255.974 166.544 244.059C188.331 222.762 209.953 201.295 231.848 180.109C254.95 157.759 277.267 134.607 300.734 112.631C309.965 103.982 318.905 95.0318 327.816 86.0431C336.174 77.6126 345.41 71.7058 357.913 73.4288C360.99 73.8511 363.897 74.7005 366.746 75.8362C377.011 79.9277 387.544 76.8117 394.149 67.7405C397.45 63.2122 399.386 58.0432 401.294 52.879C406.705 38.2554 415.058 25.9615 428.934 17.958C440.379 11.3572 453.935 13.1093 463.176 22.3699C471.228 30.4461 472.466 45.259 465.913 55.8688C456.721 70.7497 443.043 80.0684 427.308 86.7954C423.28 88.5184 419.256 90.2026 415.548 92.6051C406.118 98.7059 403.143 108.67 407.914 118.61C414.316 131.972 412.486 144.479 402.395 155.487C398.736 159.477 394.892 163.311 391.125 167.208C367.178 191.966 343.26 216.758 319.264 241.472C304.165 257.018 288.92 272.438 273.758 287.925C258.6 303.408 243.593 319.041 228.28 334.378C211.778 350.904 196.398 368.537 179.26 384.408C165.835 396.848 149.11 397.746 134.122 387.704C127.934 383.559 128.05 383.724 121.877 387.942C113.655 393.562 109.073 401.92 104.399 410.2C97.3325 422.727 88.766 434.162 78.7483 444.441C70.3129 453.1 60.1448 459.026 47.7926 459.274C27.5389 459.686 14.8761 439.821 22.467 419.97C26.5245 409.365 34.4309 401.798 42.9148 394.736V394.746V394.732ZM380.04 111.184C380.535 112.189 381.113 113.121 382.229 113.563C382.666 114.053 383.112 114.533 383.549 115.023C383.797 116.513 384.942 117.431 385.84 118.465C390.611 123.968 394.542 130.011 397.59 136.631C399.09 139.888 399.216 143.693 401.449 147.023C403.788 143.252 405.526 139.611 405.269 135.549C404.395 121.886 399.042 110.068 390.31 99.7203C389.218 97.2547 386.689 96.1724 385.015 94.2747C384.709 93.867 384.34 93.901 383.933 94.1242L384.03 94.0902C376.783 85.8927 367.867 80.7625 356.816 79.4278C347.89 78.3503 341.091 82.2622 334.334 88.6931C351.846 90.3773 366.421 96.4782 378.05 108.68C378.715 109.515 379.375 110.354 380.045 111.189L380.04 111.184ZM393.038 142.096C393.081 141.713 393.13 141.334 393.174 140.951C393.479 139.417 392.067 138.718 391.548 137.597C389.514 131.715 386.917 126.157 382.559 121.595C381.418 119.071 379.53 117.154 377.526 115.324C377.507 115.203 377.526 115.019 377.453 114.97C377.259 114.839 377.021 114.761 376.798 114.664C373.497 111.451 370.6 107.801 366.586 105.365C358.884 99.5747 350.157 96.1239 340.591 94.9153C332.99 93.9544 326.069 95.2599 320.837 101.87C318.536 104.773 315.542 107.137 312.858 109.738C302.961 119.358 293.002 128.924 283.188 138.626C272.035 149.648 261.085 160.879 249.903 171.873C234.643 186.875 219.224 201.717 203.906 216.666C183.691 236.395 163.52 256.173 143.31 275.908C136.806 282.261 130.225 288.532 123.342 295.171C125.769 295.477 127.628 295.715 129.492 295.948C128.361 297.302 127.22 298.656 126.09 300.01C119.867 300.132 114.315 301.563 111.063 307.98C117.562 307.999 123.838 308.713 129.715 311.382C145.091 318.366 156.715 329.631 166.354 343.163L175.076 360.388C175.547 365.402 177.755 370.11 177.522 375.264C177.479 376.279 178.168 376.366 179.1 375.929C182.23 374.454 186.749 367.382 186.229 364.048C185.366 358.544 183.992 353.152 181.556 348.109C180.551 344.245 178.367 340.906 176.765 337.31C176.818 337.198 176.92 337.004 176.901 336.989C176.736 336.873 176.552 336.795 176.372 336.703C175.838 335.878 175.309 335.048 174.785 334.223C175.833 333.257 175.955 331.209 178.032 331.456C178.818 332.791 179.6 334.116 180.381 335.451C180.381 335.81 180.25 336.256 180.415 336.523C185.298 344.372 190.476 352.079 191.578 361.64C191.593 361.757 191.947 361.825 192.126 361.912C204.707 348.832 217.025 335.509 229.935 322.764C240.293 312.528 250.145 301.821 260.435 291.522C275.544 276.398 290.26 260.876 305.16 245.544C321.041 229.193 336.936 212.851 352.831 196.504C365.31 183.672 377.482 170.538 390.325 158.06C395.998 152.546 396.649 148.416 393.072 142.072L393.047 142.116V142.106L393.038 142.096ZM151.915 340.984C151.721 341.158 151.527 341.323 151.338 341.493C148.362 343.279 147.746 344.959 150.245 348.026C152.925 351.317 155.308 354.962 156.788 359.112C160.263 368.906 156.07 376.502 145.839 378.555C143.451 379.03 141.024 379.336 138.631 379.817C138.073 379.928 137.34 380.331 137.122 380.797C136.787 381.506 137.568 381.841 138.102 382.166C144.945 386.33 152.318 388.538 160.414 387.015C165.553 386.044 169.65 383.316 170.339 377.671C170.931 372.857 170.878 367.979 168.834 363.412C166.728 356.297 163.86 349.56 159.079 343.784L154.318 337.95C153.337 339.183 152.624 340.076 151.915 340.969V340.979V340.984ZM140.378 355.986C142.873 359.733 144.62 363.82 145.465 368.241C146.018 371.139 147.139 370.857 148.887 369.124C151.26 366.766 151.711 363.985 150.808 360.961C149.469 356.476 147.096 352.608 143.601 349.473C142.684 348.308 141.766 347.148 140.854 345.983C136.714 340.678 131.283 337.402 124.667 336.106C121.401 335.47 118.285 335.834 115.849 338.533C115.344 339.091 114.587 339.6 114.868 340.469C115.169 341.382 116.106 341.236 116.819 341.217C120.624 341.1 124.138 342.042 127.444 343.823C132.19 347.42 136.52 351.453 140.383 355.996L140.378 355.986ZM149.284 338.897C152.517 336.713 152.556 334.49 149.595 332.048C146.766 329.714 144.14 327.117 141.247 324.875C133.734 319.056 125.672 314.435 115.718 314.09C105.564 313.746 100.914 318.07 100.599 328.326C99.7738 332.776 101.176 336.907 102.429 341.008C102.87 342.445 103.06 344.837 105.011 344.765C106.612 344.702 106.627 342.396 107.282 341.076C108.428 338.771 109.602 336.523 111.146 334.422C114.334 330.063 118.659 328.704 123.672 329.326C131.064 330.248 137.141 333.907 142.295 339.023C146.139 342.833 145.999 342.974 149.289 338.882L149.284 338.897ZM134.792 358.971C134.423 358.452 134.044 357.927 133.676 357.408C133.452 356.612 132.967 356.044 132.22 355.69C127.939 350.759 122.702 347.458 116.169 346.216C113.912 345.789 112.602 346.26 111.801 348.613C110.311 353.006 108.064 357.063 105.477 360.937C99.8466 369.387 91.1054 373.735 82.5292 378.171C69.6917 384.811 56.7571 391.242 45.5891 400.648C38.8282 406.336 32.3342 412.258 28.8979 420.635C27.4224 424.212 26.0197 427.939 27.733 431.871L27.7622 431.74C27.5923 431.973 27.4273 432.196 27.2574 432.424C26.7478 434.069 27.4807 435.54 27.8592 437.054C31.3198 448.95 43.4536 455.109 55.5825 450.955C61.4698 448.936 66.8621 445.888 71.6476 441.859C83.6698 431.74 92.0227 418.693 100.332 405.686C106.253 396.421 111.903 386.995 121.28 380.69C125.332 377.968 129.637 375.604 133.947 373.303C140.145 369.984 140.64 369.275 136.588 361.446C136.238 360.776 135.685 360.213 135.229 359.602C135.083 359.383 134.942 359.17 134.797 358.951V358.966L134.792 358.971ZM395.358 94.8814C396.629 97.4926 398.377 99.7349 400.6 102.031C401.129 101.05 401.609 100.424 401.823 99.7252C404.143 92.178 409.85 88.0088 416.64 84.922C428.891 79.3404 440.626 72.9726 450.518 63.5956C455.857 58.5285 460.332 52.9082 462.103 45.6958C463.875 38.4835 462.987 31.7857 457.07 26.573C456.692 26.175 456.313 25.7722 455.934 25.379C455.255 24.287 454.391 23.4279 453.294 22.7096C447.247 18.7249 437.627 19.5305 430.517 24.4229C418.378 32.7806 410.855 44.4436 405.521 57.8248C400.988 69.182 395.387 79.6413 381.739 82.2671C381.588 82.2962 381.496 82.6699 381.219 83.1504C383.996 84.7521 385.976 87.4895 389.233 88.4699C391.038 90.8335 392.858 93.1875 395.358 94.8911V94.8814Z" fill="#4E2714"/>
<path d="M274.641 336.64C274.321 336.324 274 336.004 273.68 335.684L273.772 335.795C271.341 332.213 271.685 328.015 274.641 323.763C279.684 316.532 287.207 313.459 295.259 311.305C300.462 309.916 305.781 308.98 311.135 308.722C313.712 308.601 314.707 307.592 315.391 305.306C317.599 297.948 320.225 290.696 324.161 284.062C328.598 276.578 334.315 270.486 343.415 268.729C344.837 268.458 346.255 268.293 347.599 268.715C349.434 269.292 351.152 269.953 350.982 272.564C350.788 275.583 348.754 274.738 347.104 274.743C340.916 274.753 336.873 278.796 333.451 282.989C328.641 288.891 325.545 295.812 323.797 303.291C323.045 306.514 324.399 306.936 326.962 306.349C336.528 304.165 345.852 301.709 351.826 292.657C353.962 289.415 356.782 291.59 359.141 293.104C358.029 299.36 354.972 304.364 349.482 307.795C345.745 310.135 341.785 311.926 337.518 313.076C326.413 316.046 315.047 317.313 303.714 318.823C291.386 320.463 280.955 325.142 274.641 336.635H274.651L274.641 336.64Z" fill="#F7AE5F"/>
<path d="M274.641 336.64C280.955 325.142 291.386 320.473 303.714 318.827C315.047 317.318 326.409 316.051 337.518 313.081C341.789 311.94 345.745 310.14 349.482 307.8C354.972 304.369 358.029 299.365 359.141 293.109C363.281 294.968 362.402 298.525 361.475 301.612C359.747 307.393 354.962 310.712 350.196 313.814C342.43 318.857 333.616 320.555 324.671 321.837C322.191 322.191 319.473 321.948 317.396 323.899C314.566 323.822 311.78 324.2 309.009 324.744C302.534 323.429 286.673 327.069 281.858 335.111C279.436 339.159 277.558 339.295 274.646 336.645L274.641 336.64Z" fill="#4E2714"/>
<path d="M171.421 175.003C169.048 172.091 169.708 169.868 173.421 168.81C180.463 166.806 186.458 169.601 192.335 172.858C193.218 173.348 193.932 175.071 195.17 173.872C196.184 172.897 195.072 171.635 194.636 170.713C192.083 165.364 191.258 159.865 192.68 154.002C193.291 151.498 194.281 148.95 196.839 148.469C199.635 147.94 200.984 150.493 202.076 152.677C206.158 160.841 205.338 168.922 201.149 176.886C200.023 179.027 198.242 180.318 195.864 181.046C187.724 183.531 176.081 180.716 171.416 174.994H171.426L171.421 175.003Z" fill="#F7AE5F"/>
<path d="M308.999 324.744C311.775 324.2 314.556 323.817 317.386 323.899C316.139 333.048 311.489 340.581 305.883 347.686C302.413 352.084 297.986 354.952 292.648 356.539C290.594 357.151 288.575 357.194 286.571 356.724C284.678 356.282 282.644 355.559 282.717 353.19C282.79 350.914 284.921 350.38 286.644 350.215C290.784 349.812 294.089 347.905 297.37 345.464C304.403 340.217 306.878 332.621 308.994 324.758L308.999 324.744Z" fill="#F7AE5F"/>
<path d="M173.183 158.016C171.164 155.016 169.601 152.274 169.698 148.911C169.8 145.416 171.116 144.324 174.566 144.824C180.26 145.649 186.055 151.842 186.836 158.249C187.069 160.19 188.336 162.801 186.768 164.054C185.016 165.447 182.72 163.661 180.745 162.913C177.736 161.773 175.032 160.166 173.188 158.016H173.178H173.183Z" fill="#F7AE5F"/>
<path d="M382.108 243.86C384.607 241.914 388.772 242.351 390.727 244.787C392.907 247.495 392.538 252.029 389.97 254.091C387.743 255.887 382.588 255.377 380.787 253.193C378.822 250.805 379.521 245.879 382.112 243.86H382.108Z" fill="#C96730"/>
<path d="M165.815 193.985C168.131 196.82 167.757 200.887 164.961 203.173C162.5 205.182 157.822 204.712 155.948 202.261C154.094 199.834 154.749 195.403 157.273 193.277C159.729 191.209 163.821 191.549 165.82 193.985H165.815Z" fill="#C96730"/>
<path d="M134.258 235.653C136.287 238.109 135.714 242.574 133.098 244.612C130.584 246.578 126.376 246.078 124.444 243.583C122.571 241.161 123.017 236.784 125.332 234.813C128.007 232.537 131.991 232.911 134.253 235.653H134.258Z" fill="#C96730"/>
<path d="M222.286 145.188C220.058 142.402 220.379 138.835 223.043 136.738C225.397 134.884 230.027 135.573 231.964 138.063C234.226 140.97 233.794 144.79 230.984 146.853C228.169 148.916 224.742 148.255 222.286 145.188Z" fill="#C96730"/>
<path d="M245.394 375.206C247.738 373.362 251.941 373.959 253.955 376.419C256.028 378.958 255.8 382.675 253.451 384.602C250.572 386.951 246.845 386.413 244.467 383.297C242.399 380.579 242.783 377.264 245.394 375.211V375.206Z" fill="#C96730"/>
<path d="M418.703 204.299C420.819 206.939 420.509 210.512 417.994 212.443C415.354 214.472 411.612 214.254 409.68 211.953C407.666 209.541 408.035 205.736 410.481 203.755C413.107 201.63 416.752 201.872 418.693 204.299H418.703Z" fill="#C96730"/>
<path d="M273.763 335.8L273.67 335.689L273.457 335.951L273.763 335.8Z" fill="#4E2714"/>
<path d="M377.536 115.32C379.535 117.149 381.428 119.066 382.574 121.585C379.797 121.236 379.011 122.212 379.749 125.022C380.729 128.749 380.283 132.613 379.579 136.393C378.424 142.553 376.215 148.396 373.871 154.206C371.148 158.128 369.057 162.505 365.543 165.869C363.941 167.505 362.33 169.135 360.738 170.786C349.482 182.473 336.218 190.311 319.944 192.384C319.187 191.088 318.041 191.005 316.677 191.224C314.207 191.627 311.722 191.903 309.237 192.228C307.043 192.515 305.65 191.991 306.359 189.365C308.878 188.879 311.382 188.287 313.916 187.928C332.107 185.346 347.953 178.129 360.16 163.942C369.979 152.531 375.803 139.752 373.172 124.386C372.808 122.245 372.415 120.032 370.212 118.251C369.348 122.629 370.464 126.551 370.047 130.472C367.863 151.032 356.292 165.054 338.795 175.018C329.685 180.206 319.73 182.584 309.572 184.453C302.374 185.778 295.22 187.428 288.391 190.234C286.076 191.185 284.401 192.524 287.061 194.922C288.566 197.591 290.604 198.125 293.715 197.456C298.389 196.451 302.99 194.747 307.868 194.956C307.436 195.437 306.893 196.165 307.868 196.33C309.222 196.558 310.708 196.121 312.028 196.412C314.105 196.873 317.032 195.771 318.104 197.747C319.138 199.654 320.584 200.387 322.191 201.275C316.677 203.319 310.907 204.139 305.15 205.027C304.228 205.168 302.932 204.949 302.762 206.381C302.578 207.895 303.898 207.755 304.796 208.046C304.053 211.259 301.651 213.943 301.423 217.277C300.918 224.737 296.555 230.299 292.449 236.065C288.347 241.822 282.125 245.399 277.548 250.534C269.618 259.43 262.391 268.958 254.188 277.631C249.699 282.378 245.151 287.013 239.371 290.415C234.25 293.424 229.581 296.88 226.62 302.728C223.296 309.295 218.811 315.474 212.511 319.847C202.61 326.719 191.277 330.621 180.391 335.441C179.604 334.106 178.823 332.781 178.042 331.447C175.678 327.423 172.47 324.064 169.232 320.779C168.301 319.832 167.364 317.769 165.262 319.211C162.962 320.91 162.442 323.802 160.69 325.87C154.793 319.211 148.401 313.139 140.412 308.951C141.184 307.65 142.203 308.038 143.208 308.164C145.115 308.402 145.897 307.635 145.222 305.728C145.979 304.806 146.732 303.888 147.479 302.961C151.517 301.534 153.327 297.812 155.681 294.754C160.593 288.357 165.893 282.353 172.077 277.141C174.484 276.646 176.144 274.097 178.91 274.578C178.672 275.388 177.998 276.476 178.294 276.946C178.959 278.014 180.177 277.267 181.08 276.961C184.725 275.748 188.297 274.311 191.961 273.17C201.096 270.321 210.575 269.749 219.986 268.734C222.548 268.458 225.096 268.157 227.441 266.997C228.518 266.463 230.013 266.094 229.499 264.298C229.353 262.954 230.261 261.177 227.577 261.143C217.651 261.027 207.842 262.323 198.023 263.594C197.194 262.643 195.606 263.619 194.869 262.41C201.416 257.974 208.988 256.421 216.481 254.979C228.445 252.689 240.501 250.888 251.907 246.277C264.628 241.137 275.486 233.575 282.227 221.315C284.499 217.19 286.867 212.501 283.368 207.711C283.149 207.124 282.829 206.556 282.732 205.94C281.3 196.732 273.568 191.534 264.653 193.801C255.552 196.116 250.145 205.182 252.873 213.569C254.562 218.772 258.906 222.107 262.983 221.248C262.731 219.782 261.347 219.408 260.454 218.588C255.819 214.292 254.761 207.42 258.057 202.959C261.774 197.922 268.793 195.805 273.365 198.383C276.131 199.945 277.772 202.401 279.121 205.25C280.655 208.478 277.728 210.148 277 212.565C273.729 223.398 265.57 229.688 256.091 234.638C243.879 241.011 230.484 242.967 217.171 245.166C205.561 247.083 194.48 250.344 184.351 256.741C179.226 259.979 174.455 263.667 169.412 266.987C168.31 264.332 170.722 262.716 171.96 261.624C184.128 250.941 197.378 241.972 213.409 238.215C219.486 236.788 225.708 236.012 231.848 234.857C233.037 234.629 235.192 234.818 233.707 232.43C234.313 230.353 233.1 229.44 231.44 228.703C227.547 226.97 223.577 227.373 219.476 227.965C213.526 228.829 208.114 231.639 202.222 232.644C202.537 232.25 202.77 231.731 203.178 231.503C211.521 226.683 221.063 224.66 229.804 219.277C229.494 222.301 229.639 224.596 231.421 226.349C232.119 227.033 232.547 228.436 233.663 228.135C235.119 227.737 234.779 226.116 234.59 225.174C233.774 221.078 234.697 217.209 236.478 213.652C243.807 199.023 255.703 189.491 270.749 183.555C283.746 178.43 297.346 175.722 310.882 172.664C324.584 169.562 338.13 165.947 348.264 154.934C355.811 146.736 360.48 137.466 360.427 126.255C360.408 121.736 359.985 121.61 355.874 123.823C355.457 123.308 355.952 122.013 354.773 122.231C353.385 122.488 353.176 123.76 353.074 124.91C352.69 129.084 352.103 133.2 349.846 136.893C348.837 135.641 347.832 134.384 346.823 133.132C347.075 131.016 346.323 129.191 344.507 128.278C337.397 124.697 330.02 124.017 322.273 126.604C315.396 128.9 309.509 132.889 303.646 136.976C304.15 134.879 306.17 134.156 307.48 132.787C316.357 123.488 327.166 117.275 339.047 112.67C347.983 109.204 357.471 108.064 366.581 105.35C370.595 107.787 373.493 111.432 376.793 114.655C376.837 114.757 376.851 114.902 376.939 114.965C377.113 115.101 377.322 115.203 377.516 115.315V115.329L377.536 115.32ZM363.596 109.772L363.693 109.787C362.441 109.384 361.179 109.51 359.893 109.675C352.802 110.592 346.56 114.271 339.736 116.062C338.853 116.295 338.455 116.984 338.557 117.8C338.693 118.892 339.639 119.066 340.547 119.183C340.78 123.342 344.08 122.619 346.488 122.454C353.783 121.945 359.694 117.698 365.936 114.436C367.639 113.548 370.566 112.684 369.92 110.485C369.168 107.913 366.373 110.092 364.528 109.728L363.587 109.772H363.596ZM261.527 257.751C262.832 255.528 263.958 253.266 263.051 250.092C261.347 252.092 260.153 253.79 259.639 255.902C255.009 262.852 249.874 269.37 243.583 274.937C242.613 275.801 241.928 277.102 242.948 278.33C243.802 279.368 244.904 278.66 245.666 278.048C252.572 272.535 258.435 266.191 261.532 257.741V257.751H261.527ZM200.766 301.214C202.794 302.418 203.188 300.602 203.741 299.452C204.964 296.919 205.974 294.298 207.167 291.75C208.23 289.478 209.322 288.522 211.541 290.954C213.822 293.448 214.948 292.929 215.608 289.575C216.341 285.872 215.739 282.222 215.224 278.577C215.074 277.524 214.666 276.587 213.312 276.66C212.278 274.544 210.812 275.486 209.497 276.267C203.634 279.713 197.528 292.41 198.684 298.884C198.868 299.928 198.606 301.758 200.766 301.209V301.214ZM161.734 313.935C164.112 316.867 165.947 316.905 168.417 313.532C174.605 305.087 182.633 298.753 192.272 294.545C194.32 293.647 196.068 292.143 195.597 289.939C195.121 287.721 192.854 290.386 191.661 289.26C191.457 288.367 191.301 287.517 189.967 287.847C187.972 288.343 185.865 288.469 183.953 289.168C172.979 293.181 165.219 301.17 158.361 310.212C157.715 311.067 157.4 312.12 158.22 313.028C159.152 314.061 160.113 315.28 161.734 313.935ZM209.216 315.779C211.298 314.537 213.186 312.013 215.321 309.8C223.451 301.36 228.819 291.376 231.396 280.004C231.789 278.267 233.11 275.204 231.396 274.782C229.042 274.195 228.834 277.383 228.261 279.203C224.131 292.264 216.942 303.277 206.522 312.314C199.761 318.177 191.67 320.919 183.38 323.39C182.487 323.657 180.968 323.409 181.051 324.836C181.133 326.234 182.633 326.472 183.696 326.549C185.074 326.646 186.525 326.433 187.884 326.108C195.48 324.283 202.489 321.172 209.211 315.789L209.216 315.779ZM280.451 239.773C289.003 232.833 295.118 224.271 297.72 213.477C298.093 211.919 299.04 209.643 297.127 209.041C295.278 208.459 295.084 210.876 294.555 212.23C290.934 221.544 286.697 230.45 278.538 236.881C277.034 238.07 275.757 239.565 274.374 240.914C273.636 241.632 272.53 242.559 273.161 243.472C274 244.695 275.34 243.753 276.228 243.151C277.718 242.147 279.053 240.899 280.456 239.759V239.769L280.451 239.773ZM179.74 313.226C178.478 314.382 177.367 315.644 178.527 317.192C179.939 319.085 181.886 318.624 183.604 317.522C185.103 316.556 185.487 315.042 184.356 313.62C183.026 311.94 181.337 312.159 179.745 313.226H179.74ZM178.517 280.349C178.066 281.47 175.571 281.892 176.644 283.46C177.508 284.722 179.197 283.368 180.473 282.858C180.59 282.809 180.701 282.737 180.798 282.654C182.774 281.164 187.38 280.237 185.958 278.005C184.574 275.825 181.099 278.995 178.517 280.344V280.354V280.349ZM269.462 212.361C270.215 211.332 270.685 210.055 269.448 208.818C268.268 207.643 266.885 207.75 265.677 208.832C264.449 209.929 264.177 211.249 265.415 212.501C266.608 213.71 267.929 213.458 269.462 212.361ZM355.753 153.866C352.521 156.05 351.098 159.006 348.851 161.239C353.666 160.617 355.379 158.826 355.753 153.866Z" fill="#F7AE5F"/>
<path d="M283.363 207.716C286.862 212.506 284.489 217.2 282.222 221.32C275.486 233.58 264.623 241.142 251.902 246.282C240.492 250.888 228.436 252.689 216.477 254.984C208.988 256.421 201.406 257.979 194.864 262.415C186.273 265.779 178.813 270.894 172.077 277.136C165.888 282.344 160.593 288.347 155.681 294.749C153.332 297.807 151.527 301.53 147.479 302.956C146.678 302.306 145.892 301.661 145.096 301.01C140.558 297.36 135.049 296.574 129.497 295.938C127.638 295.7 125.779 295.472 123.342 295.162C130.225 288.522 136.811 282.247 143.31 275.898C163.52 256.164 183.691 236.386 203.906 216.656C219.224 201.707 234.643 186.865 249.903 171.863C261.085 160.87 272.035 149.639 283.188 138.616C293.002 128.914 302.961 119.348 312.858 109.728C315.537 107.127 318.536 104.763 320.837 101.861C326.069 95.2551 332.99 93.9398 340.591 94.9056C350.152 96.119 358.884 99.565 366.586 105.355C357.486 108.068 347.987 109.209 339.052 112.674C327.171 117.28 316.362 123.498 307.485 132.792C306.179 134.156 304.155 134.884 303.651 136.981C295.642 143.703 287.726 150.522 278.757 155.992C270.389 161.098 262.26 166.548 254.994 173.188C253.596 174.469 252.354 175.925 251.038 177.304C256.29 174.775 260.949 171.611 265.667 168.543C277 161.18 289.007 154.813 299.083 145.596C303.345 141.694 307.402 137.607 312.523 134.622C323.875 128.011 335.174 126.643 346.813 133.137C347.822 134.389 348.827 135.646 349.837 136.898C349.492 137.651 349.138 138.408 348.793 139.16C347.259 138.563 345.643 138.112 344.192 137.345C337.363 133.763 330.345 133.593 323.026 135.991C317.915 137.67 313.353 140.237 309.47 143.907C296.914 155.788 282.174 164.408 267.278 172.882C262.687 175.498 257.639 177.673 254.164 181.987C249.024 184.827 244.661 188.705 240.56 192.786C234.74 198.586 228.635 204.304 226.785 212.836C226.504 214.132 225.324 214.297 224.388 214.443C213.885 216.112 206.012 222.383 198.368 229.275C199.834 229.358 201.023 229.513 202.362 228.537C209.075 223.674 216.404 220.121 224.596 218.5C226.499 218.122 228.319 217.535 228.897 214.982C229.6 211.846 231.488 209.138 233.265 206.439C242.588 192.33 255.809 183.298 271.321 177.309C284.615 172.178 298.71 170.271 312.401 166.733C323.836 163.782 334.708 159.826 343.799 151.876C352.36 144.387 355.923 134.865 355.865 123.818C359.976 121.605 360.398 121.731 360.417 126.25C360.466 137.456 355.802 146.731 348.254 154.929C338.11 165.942 324.569 169.553 310.873 172.659C297.341 175.726 283.732 178.425 270.739 183.55C255.698 189.486 243.792 199.014 236.468 213.647C234.687 217.2 233.76 221.073 234.58 225.169C234.769 226.111 235.109 227.732 233.653 228.13C232.527 228.436 232.105 227.028 231.411 226.344C229.625 224.592 229.484 222.301 229.795 219.272C221.053 224.655 211.507 226.679 203.168 231.498C202.765 231.736 202.532 232.255 202.212 232.639C201.537 232.964 200.863 233.294 200.188 233.614C199.378 233.148 198.946 233.512 198.698 234.299C182.327 242.385 169.422 254.572 157.89 268.399C159.758 267.235 161.53 265.939 163.127 264.463C172.426 255.839 181.958 247.505 193.049 241.22C205.707 234.046 219.049 229.998 233.697 232.425C235.182 234.808 233.022 234.629 231.838 234.852C225.693 236.007 219.481 236.788 213.399 238.211C197.368 241.967 184.118 250.932 171.95 261.619C170.713 262.711 168.301 264.327 169.402 266.982C168.699 267.637 167.995 268.288 167.291 268.938C166.723 268.749 166.524 268.977 166.611 269.535C165.757 270.385 164.898 271.239 164.039 272.088C162.675 272.7 161.307 273.316 161.108 275.068C155.943 280.65 151.905 286.833 150.022 294.735C152.109 293.604 152.648 291.924 153.556 290.58C162.175 277.776 172.839 267.196 186.273 259.362C197.591 252.766 210.007 250.296 222.626 248.369C236.963 246.18 250.917 242.812 263.279 234.658C270.744 229.731 277.014 223.679 280.087 215.04C280.989 212.501 281.281 209.74 283.339 207.706H283.353L283.363 207.716ZM356.52 103.506C346.793 95.2794 309.98 115.64 305.937 127.308C321.186 115.116 337.13 106.316 356.52 103.506Z" fill="#FCF0D1"/>
<path d="M180.386 335.431C191.277 330.617 202.61 326.714 212.506 319.837C218.806 315.459 223.291 309.285 226.616 302.719C229.576 296.86 234.255 293.414 239.366 290.405C245.146 287.003 249.694 282.363 254.184 277.621C262.391 268.948 269.608 259.42 277.543 250.524C282.12 245.394 288.343 241.812 292.444 236.056C296.55 230.299 300.923 224.732 301.418 217.268C301.646 213.933 304.044 211.249 304.791 208.036C331.384 207.697 351.196 195.305 365.674 173.426C365.941 172.936 366.203 172.445 366.465 171.955C366.926 171.421 367.387 170.887 367.848 170.354C370.784 165.301 373.536 160.19 373.852 154.196C376.196 148.396 378.404 142.553 379.564 136.389C380.268 132.608 380.715 128.749 379.734 125.017C379.001 122.212 379.783 121.231 382.559 121.581C386.913 126.143 389.519 131.7 391.543 137.578C387.374 143.834 384.966 150.857 381.782 157.904C383.811 157.846 384.36 156.773 385.165 155.987C389.184 152.095 390.567 146.761 393.057 142.033C396.634 148.382 395.979 152.512 390.31 158.021C377.468 170.504 365.295 183.633 352.817 196.465C336.926 212.812 321.036 229.154 305.145 245.505C290.25 260.842 275.529 276.359 260.42 291.483C250.131 301.782 240.283 312.489 229.921 322.725C217.02 335.465 204.692 348.793 192.112 361.873C191.932 361.786 191.578 361.713 191.563 361.602C190.462 352.035 185.278 344.328 180.4 336.485C180.235 336.227 180.371 335.781 180.366 335.412L180.386 335.431ZM230.697 311.426C226.14 314.047 223.432 317.896 220.185 321.05C211.06 329.908 201.494 337.989 189.481 342.673C188.506 343.056 186.831 343.066 187.186 344.697C187.569 346.454 189.083 346.007 190.345 345.726C196.577 344.362 202.251 341.741 207.396 337.95C215.55 331.947 222.272 324.516 228.538 316.653C229.625 315.289 230.377 313.712 230.692 311.421L230.697 311.426ZM298.103 245.423C307.179 236.997 313.042 226.916 314.45 214.588C307.907 224.291 302.675 234.672 298.103 245.423Z" fill="#C96730"/>
<path d="M27.864 437.059C27.4806 435.54 26.7477 434.079 27.2622 432.429C27.9563 432.579 27.9174 432.201 27.767 431.744L27.7379 431.876C30.286 431.827 33.1301 430.56 35.4404 433.802C34.0232 423.542 36.9401 415.039 45.0795 408.588C46.851 410.874 48.2051 413.558 51.6705 415.655C50.2193 411.855 47.9042 409.918 46.0647 407.652C51.5589 402.555 57.3055 397.828 63.615 393.732C73.6618 387.213 85.1355 383.326 94.8426 376.147C102.812 370.255 110.5 364.193 114.087 354.588C115.504 350.788 117.606 350.531 120.94 351.627C124.74 352.88 128.079 355.37 132.219 355.695C132.967 356.049 133.452 356.612 133.671 357.408C134.04 357.927 134.418 358.452 134.792 358.976C134.937 359.194 135.078 359.408 135.224 359.626C128.798 364.834 122.328 369.974 115.975 375.259C111.611 378.895 107.85 383.132 104.52 387.718C96.8956 398.226 90.3628 409.52 81.7526 419.315C72.6038 429.716 63.0812 439.661 47.9625 440.539C47.8751 440.481 47.7877 440.393 47.6858 440.364C47.6227 440.345 47.5353 440.423 47.4577 440.457C47.6276 440.481 47.7926 440.505 47.9625 440.529C48.4478 440.932 49.3311 441.311 49.3409 441.733C49.3748 442.767 48.2828 442.529 47.6227 442.752C39.6727 445.388 34.5425 438.675 27.864 437.074L27.8543 437.064L27.864 437.059ZM45.3076 439.733C45.3949 439.792 45.4775 439.874 45.5745 439.898C45.6328 439.913 45.7201 439.845 45.7929 439.816C45.6328 439.787 45.4677 439.758 45.3124 439.733C45.2154 439.685 45.1329 439.607 45.0261 439.588C44.9678 439.573 44.895 439.651 44.8222 439.685C44.9872 439.699 45.1426 439.719 45.3076 439.733ZM89.426 390.956C85.8636 389.034 83.495 391.184 81.2187 393.504C79.4666 395.285 80.2529 396.916 81.6119 398.454C80.3839 399.988 81.3886 400.459 82.7039 400.687C86.0625 401.26 91.6441 396.445 91.5276 393.062C91.4839 391.776 90.9064 390.883 89.4212 390.965V390.956H89.426ZM51.6172 422.644C51.3211 424.624 52.452 425.003 54.1216 425.013C57.8054 425.037 61.5474 422.023 62.455 418.193C63.1006 415.471 62.1784 414.777 59.6983 416.058C58.3975 413.034 56.2037 414.675 54.7234 415.558C52.1705 417.082 50.1029 419.208 51.6123 422.649L51.6172 422.644Z" fill="#F7AE5F"/>
<path d="M455.934 25.3693C456.313 25.7673 456.691 26.1702 457.07 26.5633C456.973 27.1748 456.628 27.8883 456.818 28.3931C458.861 33.829 457.91 39.0611 455.095 43.8904C448.465 55.2573 438.525 63.5811 427.832 70.7109C416.567 78.2193 405.492 85.8781 395.367 94.8717C392.873 93.1632 391.048 90.8141 389.242 88.4505C389.626 85.9121 391.96 88.3049 392.873 86.9362L390.528 84.0629L390.562 83.6989C392.475 82.403 394.639 81.6022 396.508 80.1316C402.711 75.2392 406.123 68.4443 409.646 61.7319C414.359 52.7383 418.557 43.4535 425.619 35.8772C432.366 28.6406 440.335 24.3355 450.474 24.6996C452.352 24.7626 453.944 26.6167 455.944 25.3693H455.934ZM441.757 34.0668C437.025 32.9166 433.958 36.3723 435.263 41.3568C434.987 43.8224 436.85 43.9437 438.19 43.3613C441.034 42.1285 443.524 40.3085 443.543 36.6974C443.553 35.7413 444.004 34.5425 442.34 34.5328C442.179 34.3338 441.981 34.1833 441.762 34.0668H441.757ZM415.912 63.3044C413.883 65.9738 416.388 65.7069 417.679 65.7991C420.552 66.0078 421.809 63.5811 423.479 61.8629C425.576 59.7128 425.323 58.0723 422.513 56.9512C422.227 55.1311 421.237 54.6021 419.591 55.4757C416.393 57.1696 414.82 59.6303 415.917 63.2996L415.912 63.3044ZM399.76 83.4077C398.872 84.1551 397.949 85.019 398.935 85.9752C400.274 87.2759 401.735 86.6013 403.041 85.5869C403.793 84.9996 404.526 84.2134 403.778 83.3689C402.507 81.9176 401.051 82.5729 399.76 83.4077Z" fill="#F7AE5F"/>
<path d="M27.864 437.059C34.5327 438.666 39.6726 445.373 47.6226 442.738C48.2876 442.519 49.3796 442.762 49.3408 441.718C49.3214 441.296 48.4477 440.913 47.9624 440.515C63.0859 439.636 72.6085 429.696 81.7574 419.295C90.3724 409.506 96.9004 398.207 104.525 387.699C107.855 383.107 111.616 378.87 115.98 375.24C122.333 369.954 128.807 364.81 135.229 359.607C135.69 360.218 136.238 360.776 136.588 361.451C140.64 369.28 140.15 369.988 133.947 373.308C129.642 375.614 125.332 377.972 121.28 380.695C111.903 386.995 106.258 396.411 100.332 405.691C92.0226 418.698 83.6746 431.744 71.6475 441.864C66.862 445.897 61.4697 448.94 55.5824 450.96C43.4535 455.114 31.3197 448.96 27.8591 437.059H27.864Z" fill="#C96730"/>
<path d="M395.358 94.8814C405.487 85.883 416.568 78.2338 427.823 70.7206C438.51 63.5956 448.445 55.267 455.085 43.9C457.9 39.0708 458.856 33.8387 456.808 28.4028C456.619 27.898 456.968 27.1845 457.06 26.573C462.972 31.7808 463.86 38.4835 462.089 45.691C460.317 52.8985 455.852 58.5237 450.503 63.5908C440.617 72.9726 428.871 79.3356 416.626 84.9171C409.841 88.0088 404.133 92.178 401.808 99.7203C401.594 100.419 401.114 101.05 400.585 102.026C398.357 99.7252 396.61 97.4877 395.343 94.8765L395.358 94.8814Z" fill="#C96730"/>
<path d="M168.829 363.417C170.873 367.984 170.921 372.862 170.334 377.676C169.64 383.316 165.549 386.049 160.409 387.019C152.313 388.543 144.95 386.335 138.097 382.171C137.563 381.845 136.782 381.515 137.117 380.802C137.33 380.336 138.068 379.933 138.626 379.822C141.014 379.346 143.441 379.04 145.834 378.56C156.065 376.507 160.258 368.906 156.783 359.116C155.308 354.962 152.92 351.322 150.241 348.031C147.746 344.964 148.362 343.275 151.333 341.498C156.827 348.143 162.103 354.923 165.097 363.169C166.087 365.877 167.441 365.038 168.829 363.431V363.422V363.417Z" fill="#C96730"/>
<path d="M145.222 305.723C145.902 307.635 145.12 308.397 143.208 308.159C142.198 308.033 141.189 307.64 140.412 308.946C148.396 313.129 154.788 319.206 160.69 325.865C160.977 326.258 161.268 326.646 161.554 327.04C163.403 329.452 165.35 331.796 167.068 334.3C167.956 335.592 169.32 337.373 167.645 338.727C165.947 340.1 166.747 341.692 166.359 343.168C156.715 329.631 145.096 318.366 129.715 311.387C123.837 308.722 117.557 308.004 111.063 307.985C114.315 301.568 119.862 300.137 126.089 300.015C131.05 301.34 136.355 301.301 141.048 303.675C142.14 304.951 143.941 304.83 145.222 305.733V305.723Z" fill="#FCF0D1"/>
<path d="M390.519 84.0629L392.863 86.9362C391.95 88.3097 389.616 85.9169 389.233 88.4505C385.981 87.4701 384 84.7327 381.219 83.131C381.491 82.6505 381.583 82.2768 381.739 82.2477C395.382 79.6268 400.988 69.1675 405.521 57.8054C410.855 44.4242 418.383 32.7612 430.517 24.4035C437.627 19.5111 447.247 18.7055 453.294 22.6902C454.396 23.4134 455.255 24.2676 455.934 25.3596C453.925 26.607 452.338 24.7578 450.464 24.6898C440.325 24.3258 432.361 28.6357 425.61 35.8675C418.553 43.439 414.354 52.7237 409.637 61.7222C406.118 68.4346 402.701 75.2344 396.498 80.1218C394.634 81.5876 392.47 82.3933 390.553 83.6892C390.363 83.728 390.164 83.7668 389.97 83.8057C390.15 83.8882 390.334 83.9707 390.514 84.0532V84.0678L390.519 84.0629Z" fill="#FCF0D1"/>
<path d="M149.284 338.897C145.994 342.993 146.135 342.848 142.291 339.037C137.141 333.927 131.064 330.267 123.668 329.34C118.654 328.714 114.329 330.078 111.141 334.436C109.602 336.538 108.423 338.785 107.277 341.091C106.617 342.411 106.603 344.721 105.006 344.779C103.06 344.857 102.861 342.454 102.424 341.023C101.172 336.921 99.7737 332.786 100.594 328.34C104.443 321.429 110.112 318.182 118.071 319.522C121.624 320.119 124.973 321.264 128.157 322.924C136.107 327.064 143.159 332.374 149.284 338.902V338.897Z" fill="#C96730"/>
<path d="M378.04 108.68C366.416 96.483 351.836 90.3725 334.325 88.6931C341.081 82.2622 347.885 78.3454 356.806 79.4278C367.858 80.7673 376.774 85.8975 384.02 94.0902C381.292 95.4541 379.472 93.3137 377.497 92.2944C371.396 89.1494 365.475 85.5966 358.636 84.1939C355.229 83.4902 351.749 82.5195 347.827 84.1066C348.9 85.1889 349.798 85.684 351.021 85.5335C351.365 85.5966 351.705 85.6548 352.059 85.7131L351.972 85.7325C362.237 90.3094 372.046 95.624 380.569 103.026C380.642 104.593 382.423 104.496 383.039 105.535C381.593 106.933 379.938 107.991 378.05 108.675L378.04 108.68Z" fill="#FCF0D1"/>
<path d="M390.305 99.7203C399.041 110.063 404.39 121.891 405.264 135.549C405.526 139.611 403.788 143.256 401.444 147.023C399.211 143.693 399.08 139.888 397.585 136.631C394.533 130.006 390.606 123.968 385.835 118.465C384.937 117.436 383.792 116.514 383.544 115.023C384.073 115.305 384.607 115.586 385.277 115.936C384.83 114.169 382.379 113.067 384.107 110.932C385.301 109.447 386.359 110.956 387.485 110.937C388.81 111.665 389.169 113.684 391.494 113.868C390.946 110.199 387.893 108.491 386.558 105.778C387.733 103.715 388.048 101.123 390.31 99.7155L390.305 99.7203Z" fill="#C96730"/>
<path d="M149.284 338.897C143.164 332.369 136.112 327.059 128.157 322.919C124.978 321.259 121.624 320.114 118.072 319.517C110.112 318.182 104.448 321.429 100.594 328.335C100.905 318.07 105.559 313.751 115.708 314.095C125.658 314.435 133.719 319.056 141.237 324.88C144.135 327.127 146.761 329.719 149.585 332.053C152.541 334.49 152.507 336.718 149.275 338.902H149.284V338.897Z" fill="#FCF0D1"/>
<path d="M166.364 343.163C166.743 341.692 165.942 340.1 167.65 338.722C169.325 337.368 167.961 335.587 167.073 334.296C165.354 331.791 163.408 329.447 161.559 327.035C164.301 328.51 166.393 331.019 169.504 331.98C169.766 330.592 170.019 329.282 170.261 327.976C171.771 330.049 173.285 332.126 174.795 334.199C175.328 335.024 175.857 335.854 176.382 336.679C176.411 336.946 176.537 337.154 176.775 337.285C178.372 340.887 180.56 344.221 181.565 348.084C179.444 352.2 178.406 356.869 175.091 360.374L166.369 343.148V343.163H166.364Z" fill="#F7AE5F"/>
<path d="M175.086 360.388C178.396 356.884 179.439 352.215 181.56 348.099C183.997 353.147 185.366 358.539 186.234 364.038C186.758 367.367 182.235 374.444 179.104 375.919C178.173 376.356 177.488 376.274 177.527 375.254C177.755 370.105 175.557 365.397 175.081 360.378L175.086 360.388Z" fill="#C96730"/>
<path d="M390.305 99.7203C388.048 101.133 387.733 103.72 386.558 105.787L382.122 101.254C376.827 95.0124 369.867 91.0665 362.524 87.8292C359.286 86.4023 355.86 84.6307 351.967 85.7228L352.055 85.7034C351.715 85.6451 351.37 85.582 351.016 85.5238C349.793 85.6791 348.895 85.1792 347.822 84.0969C351.744 82.5098 355.224 83.4853 358.631 84.1842C365.475 85.5917 371.391 89.1445 377.492 92.2847C379.467 93.304 381.287 95.4444 384.015 94.0805L383.918 94.1145C384.277 94.1679 384.641 94.2116 385 94.265C386.675 96.1627 389.203 97.2402 390.296 99.7106L390.305 99.7203Z" fill="#F7AE5F"/>
<path d="M127.429 343.813C124.124 342.032 120.605 341.095 116.805 341.207C116.096 341.231 115.155 341.377 114.854 340.46C114.567 339.596 115.329 339.086 115.834 338.523C118.275 335.82 121.391 335.451 124.653 336.096C131.268 337.387 136.694 340.663 140.835 345.968C140.854 348.434 139.747 348.463 138.16 347.167C136.423 345.75 134.714 344.299 133.049 342.804C130.749 340.736 128.788 340.377 127.429 343.813Z" fill="#FCF0D1"/>
<path d="M143.591 349.468C147.091 352.603 149.459 356.471 150.799 360.956C151.701 363.98 151.25 366.761 148.877 369.12C147.139 370.852 146.018 371.143 145.455 368.236C144.606 363.815 142.854 359.728 140.364 355.986C141.329 353.763 143.674 352.2 143.582 349.468H143.591Z" fill="#C96730"/>
<path d="M168.83 363.417C167.441 365.028 166.087 365.868 165.097 363.155C162.093 354.913 156.822 348.133 151.333 341.484C151.527 341.314 151.716 341.149 151.915 340.979C153.968 342.741 154.832 347.424 159.079 343.794C163.855 349.57 166.723 356.301 168.834 363.422L168.83 363.417Z" fill="#F7AE5F"/>
<path d="M143.591 349.468C143.688 352.2 141.339 353.763 140.373 355.986C136.52 351.448 132.186 347.415 127.434 343.813C128.788 340.382 130.749 340.731 133.054 342.804C134.724 344.304 136.428 345.75 138.165 347.167C139.752 348.463 140.859 348.439 140.839 345.968C141.757 347.133 142.669 348.298 143.586 349.458L143.591 349.468Z" fill="#F7AE5F"/>
<path d="M141.048 303.665C136.364 301.292 131.05 301.331 126.089 300.006C127.22 298.651 128.361 297.297 129.492 295.943C135.049 296.584 140.558 297.365 145.091 301.015C143.946 302.209 142.014 302.204 141.038 303.665H141.048Z" fill="#944717"/>
<path d="M393.072 142.048C390.582 146.775 389.203 152.109 385.18 156.002C384.374 156.783 383.821 157.856 381.797 157.919C384.976 150.867 387.388 143.848 391.557 137.592C392.082 138.723 393.489 139.412 393.188 140.951C393.145 141.334 393.096 141.713 393.052 142.096L393.077 142.053L393.072 142.048Z" fill="#944717"/>
<path d="M174.79 334.208C173.28 332.136 171.766 330.058 170.252 327.981C168.587 325.054 166.922 322.133 165.257 319.206C167.354 317.76 168.296 319.822 169.228 320.774C172.465 324.06 175.673 327.418 178.037 331.442C175.954 331.199 175.838 333.242 174.79 334.208Z" fill="#944717"/>
<path d="M387.485 110.942C386.364 110.956 385.306 109.447 384.107 110.937C382.379 113.072 384.83 114.179 385.277 115.941C384.607 115.586 384.078 115.305 383.544 115.028C383.103 114.543 382.661 114.058 382.224 113.567C381.884 112.422 381.346 111.451 380.03 111.189C379.365 110.354 378.705 109.515 378.036 108.68C379.924 107.996 381.583 106.938 383.025 105.54C384.51 107.34 386 109.146 387.48 110.942H387.485Z" fill="#F7AE5F"/>
<path d="M159.088 343.794C154.847 347.429 153.973 342.746 151.925 340.979C152.638 340.081 153.347 339.193 154.327 337.96L159.088 343.794Z" fill="#FCF0D1"/>
<path d="M134.792 358.971C134.418 358.447 134.04 357.923 133.671 357.403C134.044 357.927 134.423 358.452 134.792 358.971Z" fill="#FCF0D1"/>
<path d="M380.04 111.184C381.355 111.442 381.889 112.407 382.234 113.563C381.117 113.126 380.54 112.189 380.04 111.184Z" fill="#C96730"/>
<path d="M176.765 337.295C176.527 337.159 176.401 336.955 176.372 336.688C176.547 336.781 176.736 336.863 176.901 336.975C176.92 336.989 176.814 337.188 176.765 337.295Z" fill="#944717"/>
<path d="M385.01 94.2747C384.651 94.2213 384.292 94.1728 383.928 94.1242C384.33 93.9058 384.704 93.867 385.01 94.2747Z" fill="#FCF0D1"/>
<path d="M377.536 115.32C377.341 115.208 377.133 115.106 376.958 114.97C376.875 114.912 376.861 114.766 376.812 114.659C377.031 114.752 377.273 114.834 377.468 114.965C377.54 115.014 377.516 115.198 377.54 115.32H377.536Z" fill="#C96730"/>
<path d="M27.7524 431.744C27.9029 432.201 27.9466 432.584 27.2477 432.429C27.4176 432.196 27.5777 431.968 27.7524 431.744Z" fill="#FCF0D1"/>
<path d="M283.363 207.716C281.305 209.75 281.014 212.506 280.111 215.05C277.034 223.694 270.763 229.746 263.303 234.667C250.941 242.826 236.992 246.199 222.65 248.379C210.036 250.301 197.616 252.766 186.297 259.372C172.863 267.205 162.2 277.791 153.58 290.59C152.672 291.939 152.133 293.613 150.046 294.744C151.934 286.843 155.963 280.655 161.132 275.078C162.311 274.287 163.476 273.476 164.058 272.103C164.913 271.253 165.772 270.399 166.631 269.55C166.859 269.351 167.082 269.152 167.31 268.953C168.014 268.297 168.718 267.647 169.422 266.997C174.464 263.677 179.24 259.983 184.361 256.751C194.495 250.359 205.571 247.092 217.18 245.175C230.489 242.972 243.889 241.021 256.101 234.648C265.579 229.697 273.738 223.407 277.01 212.574C277.738 210.162 280.664 208.488 279.13 205.26C277.781 202.406 276.141 199.955 273.374 198.392C268.797 195.81 261.784 197.931 258.066 202.969C254.771 207.43 255.834 214.312 260.464 218.597C261.352 219.423 262.735 219.796 262.993 221.257C258.916 222.121 254.572 218.782 252.883 213.579C250.155 205.192 255.562 196.126 264.662 193.811C273.583 191.544 281.305 196.742 282.742 205.949C282.834 206.561 283.159 207.129 283.377 207.721L283.363 207.716Z" fill="#944717"/>
<path d="M348.822 139.165C349.167 138.413 349.521 137.655 349.866 136.903C352.122 133.205 352.715 129.094 353.093 124.92C353.195 123.77 353.404 122.498 354.792 122.241C355.971 122.022 355.476 123.323 355.894 123.833C355.957 134.889 352.394 144.407 343.828 151.891C334.742 159.841 323.865 163.796 312.43 166.747C298.739 170.281 284.639 172.183 271.35 177.323C255.838 183.312 242.617 192.34 233.294 206.454C231.513 209.148 229.629 211.861 228.926 214.996C228.353 217.544 226.533 218.136 224.625 218.515C216.433 220.136 209.104 223.689 202.392 228.552C201.047 229.523 199.858 229.367 198.397 229.29C206.037 222.398 213.914 216.132 224.417 214.457C225.358 214.307 226.533 214.147 226.814 212.851C228.668 204.323 234.769 198.601 240.589 192.801C244.69 188.719 249.053 184.841 254.193 182.002C267.768 174.921 282.081 170.087 296.953 166.578C306.582 164.311 316.304 162.093 325.545 158.424C335.315 154.546 343.964 149.095 348.817 139.17L348.827 139.16L348.822 139.165Z" fill="#944717"/>
<path d="M287.051 194.907C284.392 192.515 286.071 191.165 288.381 190.219C295.2 187.414 302.359 185.763 309.562 184.438C319.72 182.57 329.675 180.192 338.785 175.003C356.282 165.039 367.858 151.012 370.037 130.458C370.459 126.536 369.338 122.614 370.202 118.236C372.405 120.018 372.798 122.236 373.162 124.371C375.793 139.738 369.974 152.517 360.15 163.927C347.944 178.114 332.097 185.332 313.906 187.914C311.372 188.273 308.868 188.865 306.344 189.345C303.024 189.86 299.7 190.234 296.404 191.025C293.046 191.83 290.269 193.869 287.042 194.893L287.051 194.903V194.907Z" fill="#944717"/>
<path d="M346.842 133.146C335.203 126.652 323.904 128.021 312.552 134.632C307.431 137.612 303.374 141.698 299.112 145.605C289.032 154.827 277.029 161.19 265.696 168.553C260.978 171.62 256.324 174.78 251.068 177.313C252.383 175.935 253.62 174.479 255.023 173.198C262.284 166.558 270.414 161.103 278.786 156.002C287.755 150.527 295.676 143.708 303.68 136.99C309.538 132.899 315.425 128.914 322.307 126.619C330.049 124.036 337.436 124.721 344.541 128.293C346.357 129.205 347.109 131.03 346.857 133.146H346.847H346.842Z" fill="#944717"/>
<path d="M322.186 201.256C320.584 200.373 319.138 199.64 318.099 197.727C317.027 195.752 314.095 196.854 312.023 196.393C310.703 196.101 309.218 196.538 307.863 196.31C306.888 196.15 307.431 195.417 307.863 194.937C311.882 194.082 315.91 193.223 319.929 192.369C336.208 190.292 349.468 182.458 360.723 170.771C362.315 169.121 363.926 167.49 365.528 165.854C365.504 166.713 365.479 167.568 365.46 168.427C362.747 172.305 360.442 176.551 357.253 179.993C347.623 190.379 335.543 196.936 322.186 201.251V201.256Z" fill="#C96730"/>
<path d="M209.216 315.779C202.494 321.167 195.485 324.278 187.889 326.098C186.53 326.423 185.074 326.632 183.701 326.54C182.638 326.467 181.133 326.224 181.056 324.826C180.978 323.395 182.497 323.642 183.385 323.38C191.68 320.91 199.771 318.177 206.527 312.304C216.947 303.267 224.135 292.25 228.266 279.194C228.838 277.378 229.052 274.19 231.401 274.772C233.105 275.199 231.794 278.257 231.401 279.994C228.829 291.371 223.456 301.345 215.326 309.79C213.191 312.003 211.303 314.522 209.221 315.77L209.216 315.779Z" fill="#944717"/>
<path d="M322.186 201.256C335.548 196.946 347.618 190.379 357.253 179.997C360.441 176.556 362.752 172.314 365.46 168.432C366.261 169.072 367.062 169.708 367.853 170.349C367.392 170.883 366.931 171.416 366.47 171.95C365.795 172.222 365.382 172.635 365.678 173.421C351.205 195.31 331.388 207.696 304.796 208.031C303.898 207.74 302.573 207.881 302.762 206.367C302.937 204.93 304.223 205.148 305.15 205.012C310.906 204.129 316.677 203.304 322.191 201.261L322.186 201.256Z" fill="#4E2714"/>
<path d="M200.203 233.629C200.877 233.304 201.552 232.974 202.227 232.653C208.119 231.649 213.53 228.838 219.481 227.974C223.577 227.377 227.552 226.975 231.445 228.712C233.105 229.45 234.318 230.362 233.711 232.44C219.068 230.018 205.721 234.061 193.063 241.234C181.978 247.52 172.441 255.853 163.141 264.478C161.549 265.958 159.773 267.249 157.904 268.414C169.436 254.586 182.347 242.389 198.713 234.313C199.213 234.085 199.708 233.862 200.203 233.629Z" fill="#944717"/>
<path d="M191.656 289.255C192.85 290.381 195.111 287.712 195.592 289.934C196.067 292.138 194.315 293.647 192.267 294.54C182.633 298.753 174.6 305.082 168.412 313.527C165.942 316.901 164.107 316.862 161.729 313.93C161.588 313.144 161.729 312.421 162.229 311.77C168.723 303.301 176.11 295.938 186.414 292.177C188.312 291.483 190.447 291.211 191.656 289.255Z" fill="#FCF0D1"/>
<path d="M229.489 264.298C230.003 266.094 228.508 266.463 227.431 266.997C225.091 268.157 222.538 268.458 219.976 268.734C210.565 269.749 201.086 270.321 191.952 273.17C188.287 274.316 184.71 275.752 181.07 276.961C180.167 277.257 178.954 278.014 178.284 276.946C177.988 276.466 178.668 275.379 178.901 274.578C179.24 274.301 179.58 274.029 179.925 273.758C180.696 273.864 181.196 273.534 181.473 272.821C182.73 271.986 183.982 271.147 185.244 270.317C190.2 269.123 195.092 267.681 200.144 266.803C209.876 265.109 219.728 265.429 229.489 264.303V264.298Z" fill="#FCF0D1"/>
<path d="M191.656 289.255C190.447 291.206 188.316 291.478 186.414 292.177C176.105 295.943 168.718 303.301 162.229 311.77C161.729 312.421 161.588 313.149 161.729 313.93C160.113 315.28 159.147 314.056 158.215 313.023C157.39 312.11 157.71 311.062 158.356 310.208C165.214 301.165 172.97 293.172 183.948 289.163C185.86 288.464 187.967 288.333 189.962 287.843C191.296 287.513 191.447 288.362 191.656 289.255Z" fill="#944717"/>
<path d="M280.451 239.773C279.048 240.919 277.718 242.161 276.223 243.166C275.33 243.768 274 244.705 273.156 243.486C272.53 242.574 273.627 241.652 274.369 240.929C275.752 239.579 277.024 238.08 278.534 236.895C286.697 230.459 290.929 221.558 294.55 212.244C295.079 210.89 295.273 208.473 297.123 209.055C299.03 209.662 298.088 211.934 297.715 213.492C295.113 224.276 288.993 232.843 280.446 239.788V239.778L280.451 239.773Z" fill="#944717"/>
<path d="M229.489 264.298C219.733 265.424 209.876 265.104 200.144 266.798C195.097 267.676 190.209 269.113 185.244 270.312C185.108 269.2 185.943 268.928 186.695 268.414C190.161 266.045 194.412 265.618 198.004 263.599C207.823 262.328 217.637 261.032 227.557 261.148C230.246 261.182 229.333 262.954 229.479 264.303L229.489 264.298Z" fill="#944717"/>
<path d="M364.538 109.728C366.377 110.097 369.173 107.918 369.93 110.485C370.576 112.684 367.644 113.543 365.945 114.436C359.699 117.693 353.792 121.945 346.497 122.454C344.095 122.624 340.785 123.338 340.557 119.188L340.843 119.212C341.1 119.668 341.353 119.673 341.595 119.188C349.375 117.067 357.015 114.567 363.693 109.791L363.596 109.777C363.931 110.272 364.237 110.015 364.538 109.733V109.723V109.728Z" fill="#FCF0D1"/>
<path d="M213.317 276.665C214.666 276.587 215.084 277.524 215.229 278.582C215.744 282.227 216.345 285.872 215.613 289.58C214.948 292.939 213.822 293.458 211.545 290.959C209.327 288.532 208.235 289.483 207.172 291.755C205.983 294.298 204.964 296.924 203.746 299.457C203.192 300.607 202.799 302.423 200.771 301.219C201.105 300.141 201.513 299.074 201.765 297.982C203.61 289.808 208.978 283.518 213.322 276.675L213.317 276.665Z" fill="#FCF0D1"/>
<path d="M319.929 192.374C315.911 193.228 311.882 194.087 307.863 194.941C302.981 194.738 298.38 196.441 293.711 197.441C290.599 198.106 288.561 197.572 287.056 194.907C290.284 193.888 293.06 191.85 296.419 191.039C299.71 190.248 303.039 189.874 306.359 189.36C305.645 191.986 307.038 192.51 309.237 192.223C311.717 191.898 314.207 191.622 316.677 191.219C318.041 191 319.192 191.078 319.944 192.379L319.929 192.374Z" fill="#FCF0D1"/>
<path d="M213.317 276.665C208.973 283.508 203.605 289.803 201.761 297.972C201.513 299.069 201.101 300.132 200.766 301.209C198.606 301.758 198.873 299.928 198.684 298.884C197.538 292.41 203.634 279.708 209.497 276.267C210.817 275.495 212.278 274.544 213.312 276.66L213.317 276.665Z" fill="#944717"/>
<path d="M261.527 257.751C258.421 266.206 252.567 272.544 245.661 278.058C244.894 278.669 243.797 279.373 242.943 278.339C241.928 277.116 242.608 275.811 243.578 274.947C249.869 269.375 255.004 262.857 259.639 255.906L261.527 257.751Z" fill="#4E2714"/>
<path d="M363.693 109.787C357.015 114.562 349.38 117.062 341.595 119.183C341.348 119.188 341.095 119.202 340.843 119.207L340.557 119.183C339.649 119.062 338.708 118.892 338.567 117.8C338.465 116.984 338.858 116.29 339.746 116.062C346.565 114.271 352.812 110.592 359.903 109.675C361.189 109.51 362.451 109.379 363.703 109.787H363.693Z" fill="#944717"/>
<path d="M165.257 319.206C166.922 322.133 168.587 325.054 170.252 327.981C170.004 329.287 169.757 330.592 169.494 331.985C166.388 331.029 164.296 328.515 161.549 327.04C161.263 326.646 160.972 326.258 160.685 325.865C162.428 323.797 162.957 320.9 165.257 319.206Z" fill="#C96730"/>
<path d="M198.014 263.599C194.417 265.618 190.166 266.05 186.705 268.414C185.948 268.928 185.118 269.2 185.254 270.312C183.997 271.146 182.745 271.986 181.488 272.821C180.784 272.816 180.294 273.175 179.939 273.758C179.6 274.034 179.26 274.306 178.915 274.578C176.149 274.097 174.489 276.646 172.081 277.141C178.818 270.899 186.278 265.778 194.869 262.42C195.602 263.628 197.184 262.653 198.023 263.604L198.014 263.599Z" fill="#C96730"/>
<path d="M367.853 170.354C367.052 169.713 366.256 169.077 365.46 168.436C365.484 167.577 365.509 166.723 365.528 165.864C369.047 162.496 371.134 158.123 373.861 154.196C373.546 160.185 370.789 165.296 367.858 170.349L367.853 170.354Z" fill="#944717"/>
<path d="M179.74 313.226C181.327 312.159 183.016 311.94 184.351 313.62C185.482 315.047 185.094 316.561 183.599 317.522C181.89 318.628 179.944 319.09 178.522 317.192C177.367 315.639 178.469 314.382 179.735 313.226H179.74Z" fill="#4E2714"/>
<path d="M178.517 280.349C181.099 278.999 184.574 275.835 185.958 278.009C187.375 280.242 182.774 281.174 180.798 282.659C180.696 282.742 180.585 282.819 180.473 282.863C179.202 283.368 177.508 284.727 176.644 283.465C175.571 281.887 178.066 281.465 178.517 280.354V280.344V280.349Z" fill="#944717"/>
<path d="M269.462 212.361C267.929 213.458 266.604 213.705 265.414 212.501C264.182 211.254 264.449 209.929 265.677 208.832C266.89 207.76 268.263 207.643 269.448 208.818C270.685 210.055 270.215 211.332 269.462 212.361Z" fill="#4E2714"/>
<path d="M355.753 153.866C355.374 158.831 353.661 160.617 348.851 161.239C351.098 159.001 352.521 156.041 355.753 153.866Z" fill="#944717"/>
<path d="M261.527 257.751C260.896 257.134 260.27 256.523 259.639 255.906C260.153 253.795 261.342 252.096 263.051 250.097C263.958 253.261 262.832 255.523 261.527 257.756V257.751Z" fill="#944717"/>
<path d="M141.048 303.665C142.019 302.199 143.946 302.209 145.101 301.015C145.901 301.665 146.688 302.311 147.489 302.956C146.731 303.879 145.979 304.796 145.232 305.723C143.946 304.82 142.15 304.942 141.058 303.665H141.048Z" fill="#C96730"/>
<path d="M364.538 109.728C364.232 110.005 363.921 110.267 363.596 109.772C363.912 109.757 364.227 109.743 364.538 109.728Z" fill="#944717"/>
<path d="M348.822 139.165C343.973 149.09 335.32 154.541 325.55 158.419C316.304 162.088 306.582 164.306 296.957 166.573C282.081 170.077 267.773 174.916 254.198 181.997C257.673 177.682 262.716 175.498 267.312 172.892C282.208 164.423 296.943 155.803 309.504 143.916C313.382 140.252 317.949 137.68 323.06 136C330.384 133.598 337.397 133.768 344.226 137.354C345.672 138.116 347.288 138.568 348.827 139.17L348.822 139.165ZM315.231 149.367C313.964 150.503 312.77 151.735 314.037 153.293C315.425 154.997 317.197 154.507 318.764 153.318C320.177 152.255 320.73 150.755 319.585 149.357C318.274 147.756 316.643 148.498 315.226 149.367H315.231Z" fill="#F7AE5F"/>
<path d="M356.52 103.506C337.13 106.316 321.186 115.116 305.937 127.308C309.975 115.635 346.793 95.2794 356.52 103.506Z" fill="#C96730"/>
<path d="M164.049 272.103C163.466 273.481 162.306 274.292 161.122 275.078C161.321 273.326 162.685 272.714 164.049 272.103Z" fill="#F7AE5F"/>
<path d="M200.203 233.629C199.703 233.857 199.208 234.08 198.713 234.313C198.96 233.532 199.392 233.163 200.203 233.629Z" fill="#F7AE5F"/>
<path d="M167.301 268.953C167.073 269.152 166.849 269.351 166.621 269.55C166.534 268.996 166.738 268.768 167.301 268.953Z" fill="#F7AE5F"/>
<path d="M230.697 311.426C230.382 313.712 229.63 315.289 228.542 316.658C222.272 324.525 215.554 331.951 207.4 337.955C202.256 341.741 196.577 344.362 190.35 345.73C189.088 346.007 187.569 346.449 187.19 344.702C186.836 343.071 188.506 343.056 189.486 342.678C201.494 337.989 211.065 329.913 220.189 321.055C223.441 317.9 226.15 314.052 230.702 311.431L230.697 311.426Z" fill="#4E2714"/>
<path d="M298.103 245.423C302.675 234.677 307.907 224.291 314.45 214.588C313.037 226.916 307.174 236.997 298.103 245.423Z" fill="#4E2714"/>
<path d="M365.678 173.421C365.382 172.64 365.79 172.227 366.47 171.95C366.207 172.436 365.941 172.931 365.678 173.421Z" fill="#944717"/>
<path d="M59.6982 416.063C62.1735 414.786 63.1054 415.476 62.455 418.198C61.5474 422.028 57.8005 425.047 54.1215 425.018C52.4519 425.008 51.3162 424.629 51.6123 422.644C55.563 421.999 58.3198 419.878 59.6934 416.063H59.6982Z" fill="#FCF0D1"/>
<path d="M81.6167 398.454C80.2578 396.916 79.4763 395.29 81.2236 393.504C83.4951 391.189 85.8636 389.034 89.4309 390.956C87.4895 394.144 85.3782 397.153 81.6216 398.454H81.6167Z" fill="#4E2714"/>
<path d="M59.6982 416.063C58.3247 419.878 55.5679 421.999 51.6171 422.644C50.1077 419.208 52.1801 417.087 54.7282 415.558C56.1988 414.675 58.3975 413.029 59.7031 416.058L59.6982 416.063Z" fill="#4E2714"/>
<path d="M81.6167 398.454C85.3782 397.153 87.4895 394.149 89.426 390.956C90.9112 390.868 91.4888 391.761 91.5325 393.052C91.649 396.435 86.0626 401.26 82.7088 400.677C81.3935 400.449 80.3888 399.978 81.6167 398.445V398.454Z" fill="#FCF0D1"/>
<path d="M45.0746 408.593C45.4046 408.278 45.7347 407.962 46.0647 407.647C47.8945 409.918 50.2145 411.855 51.6705 415.65C48.2051 413.554 46.851 410.874 45.0794 408.584V408.593H45.0746Z" fill="#C96730"/>
<path d="M45.3076 439.733C45.1426 439.719 44.9873 439.699 44.8223 439.685C44.8902 439.651 44.9679 439.583 45.0261 439.588C45.128 439.607 45.2154 439.685 45.3125 439.733H45.3076Z" fill="#C96730"/>
<path d="M45.3076 439.733C45.4678 439.762 45.6328 439.792 45.7881 439.816C45.7153 439.845 45.6328 439.918 45.5697 439.898C45.4678 439.869 45.3852 439.792 45.3027 439.733H45.3076Z" fill="#C96730"/>
<path d="M47.9576 440.529C47.7878 440.505 47.6228 440.481 47.4529 440.457C47.5305 440.423 47.613 440.35 47.681 440.364C47.7829 440.393 47.8703 440.476 47.9576 440.539V440.529Z" fill="#C96730"/>
<path d="M415.912 63.3044C414.815 59.6351 416.388 57.1744 419.586 55.4805C421.237 54.602 422.227 55.1359 422.513 56.956C421.008 59.7953 420.14 63.2801 415.912 63.3093V63.3044Z" fill="#4E2714"/>
<path d="M415.912 63.3044C420.135 63.2801 421.013 59.7905 422.513 56.9512C425.323 58.0723 425.576 59.7128 423.479 61.8629C421.809 63.5811 420.543 66.0127 417.679 65.7991C416.388 65.7021 413.884 65.969 415.912 63.3044Z" fill="#FCF0D1"/>
<path d="M442.335 34.5376C444 34.5522 443.548 35.751 443.539 36.7023C443.519 40.3182 441.034 42.1382 438.185 43.3662C436.846 43.9437 434.982 43.8175 435.254 41.3617C436.278 40.7501 437.311 40.1386 438.336 39.527C440.398 38.4447 441.151 36.3189 442.325 34.5376H442.335Z" fill="#FCF0D1"/>
<path d="M438.35 39.5319C437.321 40.1483 436.292 40.755 435.268 41.3665C433.958 36.3723 437.035 32.9214 441.767 34.0717C440.204 35.6297 437.627 36.5664 438.36 39.5319H438.35Z" fill="#4E2714"/>
<path d="M399.76 83.4077C401.051 82.5729 402.502 81.9128 403.778 83.3688C404.516 84.2134 403.793 84.9996 403.041 85.5869C401.735 86.6061 400.279 87.2856 398.935 85.9752C397.949 85.019 398.872 84.1551 399.76 83.4077Z" fill="#944717"/>
<path d="M438.35 39.5319C437.612 36.5664 440.199 35.6297 441.757 34.0717C441.985 34.193 442.175 34.3483 442.335 34.5376C441.16 36.3189 440.413 38.4496 438.345 39.527L438.35 39.5319Z" fill="#944717"/>
<path d="M390.519 84.0629C390.339 83.9804 390.155 83.8979 389.975 83.8154C390.164 83.7765 390.363 83.7377 390.558 83.6989L390.519 84.058V84.0629Z" fill="#F7AE5F"/>
<path d="M351.962 85.7277C355.855 84.6308 359.277 86.4071 362.519 87.8341C369.862 91.0665 376.822 95.0124 382.117 101.259C381.598 101.846 381.079 102.438 380.564 103.021C372.037 95.624 362.232 90.3045 351.967 85.7277H351.962Z" fill="#944717"/>
<path d="M380.564 103.026C381.083 102.438 381.603 101.846 382.117 101.264C383.598 102.773 385.078 104.283 386.558 105.792C387.893 108.5 390.941 110.209 391.494 113.883C389.174 113.698 388.805 111.679 387.485 110.951C386 109.151 384.515 107.35 383.03 105.549C382.413 104.511 380.632 104.608 380.559 103.04V103.03L380.564 103.026Z" fill="#4E2714"/>
<path d="M351.021 85.5335C351.365 85.5966 351.705 85.6548 352.059 85.7131C351.715 85.65 351.375 85.5917 351.021 85.5335Z" fill="#944717"/>
<path d="M179.934 273.753C180.294 273.17 180.779 272.811 181.483 272.816C181.206 273.53 180.701 273.86 179.934 273.753Z" fill="#F7AE5F"/>
<path d="M340.848 119.217C341.095 119.212 341.348 119.197 341.6 119.193C341.362 119.678 341.11 119.673 340.848 119.217Z" fill="#F7AE5F"/>
<path d="M315.231 149.367C316.648 148.498 318.284 147.756 319.589 149.357C320.735 150.76 320.177 152.255 318.769 153.318C317.197 154.507 315.43 155.002 314.042 153.293C312.77 151.735 313.959 150.498 315.236 149.367H315.231Z" fill="#4E2714"/>
</svg>
