<svg xmlns="http://www.w3.org/2000/svg" width="646" height="646" fill="none">
  <path fill="#4E2714" d="M57.35 310.24c13.91.03 27.27 3.49 40.72 6.4 8.25 1.8 16.5 4.25 25.09 2.1 1.4-.35 2.77-.88 4.17-1.27 2.6-.75 3.6-2.27 3.85-5.14 1.45-17.04 12.47-30.13 27.78-33.05 4.92-.94 9.98-1.25 14.98-1.78 9.02-.96 18.04-1.96 27.08-2.78 17.4-1.58 34.81-2.97 52.22-4.55 31.11-2.83 62.2-5.9 93.33-8.58 32.85-2.81 65.58-6.79 98.48-9.06 12.94-.9 25.84-2.22 38.74-3.6 12.11-1.3 23.28.01 32.09 9.62a39.08 39.08 0 0 1 5.46 7.75c5.5 10.04 15.88 14.46 27 11.5 5.57-1.48 10.46-4.37 15.32-7.28 13.78-8.22 28.39-12.63 44.6-9.96 13.36 2.21 23 12.53 24.33 26.07 1.16 11.8-7.46 24.54-19.54 28.78-16.95 5.94-33.86 4.45-50.71-.47-4.32-1.26-8.61-2.55-13.11-3.06-11.45-1.28-20.27 4.79-22.93 15.93-3.58 14.97-13.14 23.84-28.3 26.07-5.49.8-11.03 1.37-16.55 2.03-35.07 4.2-70.14 8.44-105.22 12.57-22.08 2.6-44.18 4.99-66.27 7.5-22.08 2.5-44.13 5.22-66.24 7.5-23.82 2.47-47.47 6.56-71.38 8.07-18.73 1.2-32.6-9.07-37.99-27.01-2.22-7.41-2.23-7.2-9.88-7.87-10.17-.87-19.23 2.84-28.3 6.44a167.32 167.32 0 0 1-42.58 10.71c-12.32 1.43-24.24-.48-34.21-8.4-16.36-12.98-13.53-37.31 5.37-48.3 10.1-5.88 21.28-6.77 32.6-6.89Zm451.61-6.73c-.25 1.13-.4 2.26.2 3.35l.1 2.05c-.77 1.36-.45 2.85-.4 4.27a80.38 80.38 0 0 1-2.46 22.36c-.92 3.61-3.28 6.76-3.67 10.9 4.3-1.5 8.04-3.28 10.47-6.72 8.17-11.58 11.58-24.62 11.35-38.7.74-2.7-.57-5.23-.67-7.86.02-.53-.3-.74-.76-.83l.1.04c-.45-11.37-4.2-21.37-12.11-29.7-6.4-6.74-14.33-8.06-23.87-7.32 12.82 12.87 20.44 27.36 21.77 44.83l-.05 3.33Zm-9.71 33.44.85-.83c1.24-1.04.57-2.53.88-3.78 2.2-6.07 3.75-12.25 3.24-18.8.73-2.78.47-5.57.07-8.36.06-.1.2-.24.17-.33-.07-.23-.2-.45-.32-.68-.54-4.75-.47-9.6-2.08-14.2a56.21 56.21 0 0 0-13.88-25.5c-5.4-5.77-11.75-9.27-20.2-7.39-3.7.83-7.62.76-11.43 1.1-14.1 1.24-28.22 2.39-42.3 3.75-16 1.55-31.99 3.4-48 4.9-21.85 2.05-43.72 3.87-65.58 5.83-28.85 2.6-57.69 5.27-86.54 7.88-9.28.84-18.58 1.56-28.35 2.38l4.38 4.67-5.34 1.03c-5.02-3.99-10.36-6.49-17.1-3.45 5.15 4.29 9.67 8.99 12.61 15 7.68 15.73 9.61 32.45 8.5 49.69l-4.24 19.6c-2.88 4.35-4.18 9.6-7.7 13.6-.7.78-.2 1.3.82 1.56 3.44.87 11.62-1.85 13.36-4.88 2.89-5 5.3-10.25 6.63-15.91 1.7-3.77 2.14-7.9 3.2-11.85.11-.06.32-.14.31-.17-.05-.2-.15-.38-.23-.58l.35-3.04c1.45-.09 2.88-1.66 4.37-.1l-.73 4.77c-.23.29-.62.56-.67.88-1.2 9.53-2.1 19.14-7.42 27.57-.06.1.18.4.26.58 18.48-2.26 36.9-4.9 55.42-6.67 14.86-1.44 29.63-3.59 44.48-5.11 21.8-2.25 43.56-5.08 65.34-7.63 23.21-2.73 46.44-5.44 69.66-8.16 18.23-2.13 36.41-4.7 54.7-6.31 8.09-.72 11.28-3.61 12.55-11.07l-.05.01Zm-320.48 1.66-.79.03c-3.52-.52-5.1.43-5.1 4.54 0 4.41-.47 8.92-2 13.23-3.58 10.18-11.84 13.53-21.3 8.46-2.2-1.19-4.33-2.54-6.54-3.72-.52-.28-1.35-.44-1.83-.2-.73.35-.33 1.13-.11 1.74 2.74 7.86 7.16 14.48 14.58 18.58 4.71 2.6 9.73 3.09 13.94-1 3.59-3.49 6.71-7.45 8.05-12.47 2.94-7.12 5.03-14.43 4.98-22.22v-7.83l-3.87.85Zm-18.9 4.5a35 35 0 0 1-3.9 13.21c-1.44 2.7-.36 3.21 2.15 2.96 3.41-.34 5.57-2.28 6.82-5.31a25.89 25.89 0 0 0 1.72-14l.08-4.61c.15-7-2.03-13.2-6.45-18.6-2.18-2.66-4.9-4.41-8.58-3.84-.76.12-1.7.03-2.03.91-.36.94.48 1.44 1.06 1.89a21.51 21.51 0 0 1 6.75 9.08 85.7 85.7 0 0 1 2.39 18.31Zm18.16-7.9c3.99.36 5.46-1.41 4.7-5.32-.74-3.74-1.14-7.56-1.99-11.27-2.2-9.63-5.6-18.65-13.28-25.47-7.85-6.95-14.34-6.52-21.25 1.53-3.53 3.04-5.1 7.3-6.77 11.42-.57 1.44-1.98 3.5-.38 4.72 1.31 1 2.82-.84 4.2-1.47 2.4-1.1 4.79-2.14 7.38-2.82 5.35-1.41 9.67.33 13.25 4.13 5.28 5.6 7.73 12.55 8.5 20.05.59 5.6.38 5.62 5.65 4.5Zm-24.52 6.63.12-2c.34-.78.33-1.56-.04-2.34-.2-6.79-2.22-12.88-6.6-18.18-1.52-1.83-2.87-2.3-5.03-.94a53.78 53.78 0 0 1-13.01 5.77c-9.95 3.1-19.72.86-29.4-1.2-14.51-3.1-28.95-6.42-43.92-6.19-9.06.14-18.06.64-26.22 5.12-3.49 1.92-7.02 4-8.2 8.29l.1-.1-.84.23c-1.47.99-1.85 2.65-2.53 4.13-4.96 11.85.68 24.79 13.01 29.42a50.56 50.56 0 0 0 18.66 3.23c16.11-.24 31.2-5.26 46.24-10.27 10.7-3.57 21.3-7.45 32.84-6.36a148 148 0 0 1 14.85 2.38c7.08 1.4 7.93 1.15 9.78-7.82.16-.77.09-1.58.12-2.38l.07-.8Zm378.2-41.4c-.68 2.95-.75 5.9-.48 9.21 1.06-.44 1.85-.63 2.47-1.05 6.74-4.56 13.97-4.16 21.37-2.19 13.35 3.56 26.8 6.15 40.73 5.1 7.53-.57 14.73-2.15 20.8-6.8 6.09-4.64 9.73-10.62 8.41-18.71l-.13-1.71a8.96 8.96 0 0 0-.36-3.89c-2.22-7.18-10.38-12.86-19.2-13.6-15.06-1.24-28.6 3.2-41.52 10.47-10.96 6.18-22.19 10.91-34.73 4.06-.14-.08-.45.16-.98.37 1.16 3.11.96 6.62 2.91 9.55-.1 3.09-.18 6.18.7 9.2Z"/>
  <path fill="#F7AE5F" d="m279.07 415.8-.15-1.4v.14c.4-4.48 3.39-7.64 8.5-9.11 8.69-2.51 16.65-.04 24.44 3.52a77.36 77.36 0 0 1 14.29 8.36c2.12 1.6 3.57 1.44 5.6.04 6.52-4.47 13.3-8.59 20.74-11.34 8.37-3.11 16.87-4.26 25.23.3 1.3.72 2.54 1.52 3.33 2.75 1.09 1.67 2.02 3.33.2 5.32-2.12 2.3-3.19.28-4.5-.8-4.92-4.06-10.76-3.46-16.2-2.33-7.64 1.6-14.59 5.13-20.83 10-2.68 2.1-1.88 3.34.53 4.55 9.02 4.53 18.01 8.68 28.63 5.32 3.8-1.2 4.63 2.4 5.52 5.16-4.94 4.31-10.6 6.33-17.2 5.49a44.67 44.67 0 0 1-12.92-3.62c-10.74-4.9-20.6-11.36-30.58-17.6-10.86-6.78-22.17-9.87-34.64-4.76Z"/>
  <path fill="#4E2714" d="M279.07 415.8c12.47-5.12 23.78-2.02 34.64 4.76 9.98 6.24 19.83 12.69 30.58 17.6a44.45 44.45 0 0 0 12.92 3.61c6.59.85 12.26-1.17 17.2-5.48 2.08 4.22-.92 6.5-3.66 8.38-5.12 3.52-11.07 3.05-16.87 2.41-9.44-1.04-17.54-5.47-25.47-10.32-2.2-1.34-4.2-3.33-7.12-3.12a38.67 38.67 0 0 0-7.21-4.83c-4.29-5.32-19.25-12.81-28.29-9.5-4.55 1.66-6.12.54-6.72-3.51Z"/>
  <path fill="#F7AE5F" d="M301.88 217.75c0-3.9 1.97-5.26 5.6-3.67 6.9 3.02 9.85 9.21 12.4 15.7.39.98-.16 2.83 1.6 2.68 1.44-.12 1.38-1.87 1.62-2.9 1.44-5.98 4.35-10.96 9.28-14.74 2.1-1.61 4.55-3.01 6.89-1.72 2.56 1.41 1.98 4.35 1.43 6.83-2.05 9.26-7.94 15.23-16.43 18.89-2.29.98-4.54.85-6.9-.13-8.07-3.35-15.5-13.27-15.5-20.94h.01ZM314.07 428.8a39.02 39.02 0 0 1 7.21 4.83c-6.92 6.55-15.5 9.56-24.55 11.6a25.96 25.96 0 0 1-16.26-1.57 11.94 11.94 0 0 1-4.94-3.85c-1.22-1.6-2.37-3.52-.77-5.38 1.53-1.79 3.57-.81 5.05.18 3.55 2.4 7.4 3.04 11.6 3.22 8.99.4 15.88-4.09 22.66-9.03Z"/>
  <path fill="#F7AE5F" d="M314.3 205.23c.33-3.74.87-6.98 3.13-9.63 2.35-2.75 4.1-2.76 6.52-.08 3.98 4.4 4.57 13.2 1.04 18.88-1.07 1.71-1.76 4.65-3.82 4.63-2.3-.03-2.96-2.98-4.04-4.88-1.66-2.9-2.76-5.97-2.83-8.91Z"/>
  <path fill="#C96730" d="M424.59 411.72c3.25.08 6.27 3.17 6.24 6.42-.02 3.62-3.25 7.02-6.63 7-2.94-.02-6.7-3.82-6.72-6.77 0-3.21 3.74-6.72 7.1-6.65ZM285.12 229.35a6.7 6.7 0 0 1-6.63 6.84c-3.26 0-6.67-3.45-6.57-6.66.1-3.17 3.5-6.3 6.88-6.36a6.46 6.46 0 0 1 6.32 6.19ZM233.04 242.17c.02 3.31-3.33 6.53-6.73 6.45-3.28-.07-6.3-3.24-6.2-6.52.07-3.17 3.26-6.41 6.38-6.47a6.46 6.46 0 0 1 6.54 6.54ZM361.62 227.18c.03-3.71 2.6-6.37 6.08-6.31 3.07.06 6.3 3.65 6.22 6.93-.09 3.83-2.9 6.63-6.48 6.44-3.57-.2-5.86-2.97-5.82-7.06ZM230.83 427.63c3.06.06 6.01 3.3 6.01 6.6s-2.59 6.25-5.7 6.26c-3.82 0-6.43-2.88-6.3-6.96.12-3.54 2.58-5.96 5.98-5.9h.01ZM479.3 403.92c-.03 3.52-2.6 6.19-5.84 6.1-3.41-.1-6.25-2.74-6.28-5.87a6.08 6.08 0 0 1 5.95-6.07c3.46.01 6.2 2.6 6.17 5.83v.01Z"/>
  <path fill="#4E2714" d="M278.91 414.54v-.15l-.34.07.34.08Z"/>
  <path fill="#F7AE5F" d="M504.3 305.2c.4 2.78.66 5.57-.07 8.35-1.98-2.1-3.23-1.84-4.47.9-1.64 3.66-4.5 6.47-7.5 9.06-4.91 4.2-10.46 7.45-16.09 10.59-4.7 1.37-9.2 3.52-14.17 3.91-2.34.27-4.67.52-7 .8-16.52 2.02-32.14-.4-46.41-9.42.24-1.54-.62-2.36-1.84-3.08-2.22-1.3-4.38-2.71-6.56-4.08-1.94-1.21-2.7-2.55-.43-4.2 2.31 1.27 4.68 2.44 6.93 3.82 16.12 9.88 33.4 14.48 52.29 11.08 15.2-2.74 28.1-9.2 35.98-23.3 1.1-1.97 2.22-4.01 1.63-6.9-3.53 2.97-5.18 6.86-8.06 9.74-15.06 15.12-33.35 18.8-53.7 15.33-10.6-1.81-20.05-6.44-29.33-11.61-6.58-3.67-13.33-7.04-20.57-9.27-2.46-.76-4.66-.78-4.1 2.9-.53 3.14.74 4.9 3.64 6.42 4.37 2.26 9.12 3.91 12.86 7.29-.65.1-1.55.33-.88 1.1.92 1.08 2.39 1.7 3.24 2.8 1.35 1.74 4.4 2.78 3.96 5.08-.41 2.21.26 3.76.96 5.52-5.7-1.98-10.81-5.1-15.96-8.18-.83-.5-1.71-1.52-2.78-.48-1.13 1.1.01 1.86.54 2.68-2.68 2.1-6.32 2.68-8.66 5.22-5.24 5.68-12.31 7.29-19.31 9.23-7 1.94-14.26.73-21.22 1.85-12.07 1.95-23.99 4.88-36.12 6.47-6.65.87-13.26 1.62-20.06.56-6.02-.94-11.97-1.23-18.12 1.53-6.9 3.1-14.46 5.13-22.3 4.5-12.33-.96-23.86-5.27-35.63-8.55l.73-4.76c.73-4.8.36-9.61-.09-14.39-.12-1.37.47-3.65-2.13-3.87-2.93-.15-5.22 1.84-7.95 2.36-.37-9.24-1.51-18.33-5.14-26.96 1.46-.54 2.02.44 2.73 1.2 1.37 1.45 2.48 1.35 3.18-.63l3.6-.75c4.13 1.51 7.98-.3 11.83-1.21 8.05-1.93 16.15-3.28 24.44-3.41 2.23 1.19 5.2.22 7.09 2.43-.72.5-1.96.93-2.03 1.5-.16 1.3 1.29 1.5 2.2 1.84 3.69 1.42 7.46 2.62 11.1 4.1 9.11 3.71 17.01 9.49 25.14 14.85 2.22 1.47 4.44 2.9 7.05 3.5 1.2.28 2.63.97 3.38-.81.76-1.19 2.63-2.02.52-3.8-7.81-6.63-16.44-12.03-25.07-17.47-.04-1.3-1.93-1.57-1.73-3.02 8.07.73 15.1 4.46 21.98 8.22 11 6.02 21.74 12.5 33.79 16.29 13.43 4.22 26.96 5.27 40.26-.18 4.48-1.82 9.4-4.04 9.73-10.2.21-.62.32-1.29.64-1.84 4.84-8.36 2.07-17.63-6.49-21.67-8.73-4.12-18.9-.37-22.17 8.18-2.03 5.3-.75 10.84 3.05 12.83.75-1.34-.1-2.56-.28-3.8-.9-6.5 2.72-12.74 8.22-14.17 6.23-1.61 13.17 1.3 15.13 6.38 1.19 3.08.9 6.13.12 9.32-.87 3.6-4.28 3.03-6.43 4.5-9.62 6.57-20.18 6.27-30.91 4.03-13.83-2.9-25.74-10.13-37.74-17.11-10.47-6.09-21.38-10.74-33.58-12.25-6.17-.76-12.35-.93-18.5-1.57.84-2.87 3.8-2.58 5.5-2.65 16.59-.6 32.93.89 48.1 8.4 5.75 2.85 11.2 6.3 16.82 9.42 1.1.6 2.68 2.16 3.05-.73 1.83-1.28 1.46-2.81.62-4.5-1.97-3.95-5.38-6.23-9.03-8.45-5.29-3.22-11.4-4.51-16.74-7.58.5-.1 1.03-.37 1.5-.3 9.76 1.61 18.65 6.25 29.08 7.67-2.2 2.23-3.58 4.17-3.3 6.75.12 1.01-.46 2.43.63 2.92 1.41.64 2.2-.9 2.65-1.77 2-3.84 5.25-6.35 8.97-8.04 15.3-6.97 30.94-6.82 46.74-1.71 13.64 4.42 26.2 11.18 38.94 17.61 12.9 6.51 26 12.5 41.19 10.3 11.31-1.64 21.03-6.04 28.26-15.1 2.91-3.66 2.66-4.03-2.04-4.96 0-.68 1.23-1.4.16-2-1.27-.7-2.26.18-3.09 1.04-3 3.1-6.14 6.04-10.33 7.53l.04-5.01c1.57-1.54 2.15-3.5 1.3-5.44-3.32-7.55-8.74-12.95-16.57-15.96-6.95-2.68-14.22-3.33-21.52-3.9 1.76-1.35 3.84-.6 5.76-.85 13.08-1.65 25.7.45 38.12 4.55 9.34 3.09 17.62 8.4 26.61 12.2 1.61 4.6 1.55 9.45 2.08 14.22-.03.1-.11.24-.08.34.05.23.15.44.23.67h-.01Zm-7.48-13.64.07.07a8.81 8.81 0 0 0-2.95-2.58c-6.22-3.93-13.57-5.07-20.15-8.1-.85-.4-1.61-.11-2.06.62-.6.97.04 1.72.68 2.42-2.5 3.5.58 5.09 2.6 6.54 6.13 4.38 13.58 4.85 20.65 6.33 1.93.4 4.81 1.63 5.73-.56 1.07-2.57-2.56-2.65-3.8-4.16l-.77-.59ZM319.8 343.63c2.48-.93 4.84-2 6.18-5.16-2.65.5-4.7 1.07-6.48 2.43-8.18 2.56-16.5 4.43-25.1 4.78-1.33.06-2.72.65-2.7 2.31 0 1.4 1.33 1.56 2.34 1.56 9.06.1 17.82-1.15 25.77-5.92Zm-76.44-4.93c.83 2.3 2.32 1.1 3.5.53 2.62-1.23 5.12-2.68 7.72-3.95 2.32-1.13 3.8-1.18 3.99 2.24.2 3.5 1.43 3.83 4.13 1.56 2.98-2.5 4.87-5.83 6.82-9.1.56-.96.85-1.98-.28-2.81.55-2.38-1.22-2.59-2.77-2.83-6.89-1.07-19.97 5.14-23.26 11.11-.53.96-1.92 2.27.15 3.25Zm-39.25-15.42c-.01 3.92 1.42 5.16 5.57 4.07a58.44 58.44 0 0 1 31.26.39c2.2.62 4.57.56 5.63-1.53 1.06-2.1-2.47-1.44-2.7-3.13.42-.86.85-1.64-.42-2.26-1.9-.91-3.66-2.2-5.63-2.89-11.32-3.98-22.66-2.64-33.98.13-1.06.26-2 .9-1.93 2.18.07 1.44.04 3.06 2.2 3.04Zm36.52 32.7c2.46.37 5.6-.42 8.72-.8a63.06 63.06 0 0 0 32.09-13.43c1.44-1.14 4.47-2.74 3.39-4.2-1.5-2.03-3.72.4-5.36 1.5a72.56 72.56 0 0 1-38.73 12.37c-9.18.28-17.38-2.83-25.57-6.3-.88-.37-1.93-1.57-2.78-.36-.84 1.18.2 2.36.99 3.12 1.03.98 2.32 1.76 3.61 2.4a53.52 53.52 0 0 0 23.63 5.7Zm105.86-14.38c11.29.03 21.7-2.85 30.76-9.83 1.31-1 3.54-2.21 2.4-3.96-1.08-1.68-2.8.14-4.1.88-8.92 5.12-18.06 9.5-28.71 9.32-1.97-.03-3.95.34-5.92.51-1.06.1-2.53.12-2.63 1.27-.12 1.54 1.55 1.66 2.64 1.76 1.84.17 3.7.04 5.56.04Zm-127.62-7.06c-1.75.1-3.45.39-3.53 2.4-.11 2.46 1.74 3.36 3.81 3.6 1.82.21 3.1-.75 3.13-2.65.03-2.22-1.45-3.16-3.4-3.34h-.01Zm20.35-27.28c-1.09.6-3.35-.7-3.51 1.27-.14 1.59 2.09 1.6 3.43 2.04.13.03.26.05.4.05 2.53.1 6.78 2.38 7.1-.36.32-2.66-4.5-2.4-7.42-3Zm116.31 5.03c1.27-.33 2.47-1.05 2.29-2.86-.18-1.72-1.35-2.54-3-2.47-1.69.08-2.76.96-2.6 2.79.17 1.76 1.38 2.42 3.31 2.54ZM462 321.92c-3.98-.37-7.02 1.07-10.26 1.4 4.23 2.66 6.75 2.34 10.26-1.4Z"/>
  <path fill="#FCF0D1" d="M369.59 317.7c-.33 6.15-5.26 8.37-9.73 10.2-13.3 5.45-26.83 4.4-40.27.17-12.05-3.79-22.79-10.27-33.78-16.28-6.88-3.77-13.91-7.5-21.99-8.23-9-2.94-18.24-3.72-27.64-3.12-8.29.13-16.39 1.48-24.44 3.4-3.85.93-7.7 2.74-11.83 1.23l-.63-3.14c-1.24-5.92-5.1-10.18-9.1-14.34l-4.4-4.67c9.78-.82 19.08-1.54 28.36-2.38 28.85-2.6 57.7-5.28 86.54-7.88 21.86-1.97 43.73-3.78 65.58-5.83 16-1.5 31.99-3.35 48-4.9 14.08-1.36 28.2-2.51 42.3-3.76 3.81-.33 7.72-.26 11.43-1.09 8.44-1.88 14.79 1.61 20.2 7.39a56.27 56.27 0 0 1 13.87 25.5c-8.99-3.8-17.27-9.12-26.61-12.2-12.42-4.1-25.04-6.2-38.12-4.55-1.92.24-4-.5-5.76.85-10.72.15-21.43.44-32.1-1.05-9.95-1.4-19.95-2.34-30.02-1.78-1.94.12-3.87.47-5.81.72 5.81 1.41 11.56 1.93 17.3 2.56 13.78 1.52 27.44 4.29 41.42 3.49 5.92-.34 11.8-.97 17.8 0 13.3 2.14 23.16 8.46 28.19 21.35l-.04 5.01-2.3 1.14c-.83-1.5-1.82-2.92-2.47-4.49-3.1-7.37-8.57-12.12-15.94-15a36.01 36.01 0 0 0-15.9-2.54c-17.67 1.3-34.97-1.44-52.3-4.4-5.34-.92-10.76-2.49-16.31-1.3-5.93-1.08-11.91-.83-17.81-.24-8.39.85-16.94 1.44-23.94 7.1-1.07.85-2.11.2-2.95-.3-9.43-5.55-19.75-5.68-30.28-5.15 1.1 1.02 1.95 1.93 3.65 2.03 8.49.5 16.61 2.45 24.17 6.53 1.75.95 3.58 1.68 5.7 0 2.59-2.06 5.84-3 9-4 16.56-5.25 32.92-3.82 49.12 1.55 13.89 4.6 26.32 12.34 39.49 18.49 11 5.14 22.2 9.1 34.57 8.67 11.66-.4 20.66-5.72 27.77-14.66 4.7.92 4.96 1.3 2.04 4.95-7.23 9.06-16.94 13.46-28.25 15.1-15.2 2.2-28.3-3.79-41.2-10.3-12.73-6.42-25.29-13.2-38.94-17.6-15.8-5.12-31.42-5.27-46.73 1.7-3.71 1.7-6.96 4.2-8.97 8.04-.46.88-1.24 2.41-2.66 1.77-1.09-.49-.51-1.9-.62-2.91-.28-2.59 1.1-4.53 3.3-6.76-10.44-1.41-19.33-6.06-29.08-7.66-.47-.07-1 .2-1.5.3l-2.24-.55c-.34-.9-.92-.9-1.63-.43-18.24-4.25-36.4-2.92-54.52.64 2.24.29 4.48.4 6.71.27 12.98-.83 25.96-1.27 38.84.95 14.7 2.55 27.93 8.06 37.99 19.64-.37 2.9-1.96 1.33-3.05.73-5.63-3.1-11.07-6.56-16.82-9.42-15.18-7.5-31.51-9-48.1-8.4-1.7.07-4.66-.21-5.5 2.65l-2.96.19c-.32-.52-.63-.47-.92.03l-3.7.37c-1.48-.4-2.96-.81-4.26.47-7.72 1.1-14.94 3.43-21.55 8.56 2.39.46 3.9-.54 5.5-1.03 15.14-4.64 30.47-6.15 46.23-3.63 13.26 2.13 24.73 8.3 36 15.04 12.8 7.67 26.07 14.13 41.18 15.69 9.13.94 18.03.19 26.08-4.75 2.36-1.45 4.38-3.48 7.33-3.77v.01Zm125.67-35.84c-2.39-13.02-44.83-20.82-55.6-14.09 20 .21 38.38 3.6 55.6 14.1Z"/>
  <path fill="#C96730" d="M204.99 352.85c11.77 3.28 23.3 7.6 35.62 8.56 7.84.62 15.4-1.4 22.3-4.5 6.16-2.78 12.1-2.48 18.12-1.54 6.8 1.06 13.42.31 20.06-.56 12.14-1.59 24.06-4.51 36.12-6.46 6.97-1.13 14.23.08 21.22-1.86 7-1.93 14.07-3.54 19.31-9.23 2.34-2.53 5.99-3.12 8.66-5.21 21.34 17.2 45.11 20.25 70.8 12.15l1.59-.67 2.13-.37c5.61-2.14 11.11-4.45 15.25-9.07 5.62-3.13 11.16-6.38 16.08-10.58 3-2.59 5.86-5.4 7.5-9.05 1.24-2.75 2.5-3.02 4.48-.91.5 6.53-1.04 12.72-3.24 18.8-7.37 2.29-13.83 6.36-20.93 9.95 1.64 1.28 2.78.78 3.93.68 5.71-.5 10.27-3.88 15.32-6.05-1.28 7.46-4.48 10.36-12.55 11.07-18.3 1.61-36.48 4.18-54.71 6.32l-69.66 8.15c-21.78 2.56-43.53 5.38-65.34 7.63-14.85 1.53-29.61 3.68-44.48 5.11-18.5 1.78-36.94 4.41-55.41 6.67-.1-.19-.33-.48-.26-.58 5.32-8.42 6.2-18.04 7.42-27.56.03-.32.43-.6.67-.89Zm55.52 13.75c-5.31-.89-9.96.43-14.59.84-12.99 1.13-25.83 1.35-38.4-2.77-1.03-.34-2.37-1.43-3.14.12-.83 1.66.66 2.3 1.84 2.9 5.84 3 12.04 4.62 18.59 4.95 10.37.53 20.53-1.04 30.6-3.25a10.4 10.4 0 0 0 5.1-2.8Zm96.34-8.85c12.67-.82 23.86-5.08 32.97-14.08-11.49 3.51-22.38 8.43-32.97 14.08Z"/>
  <path fill="#F7AE5F" d="M17.94 334.43c.68-1.48 1.05-3.13 2.53-4.13.45.59.66.25.84-.22l-.1.1c2.05 1.63 5.13 2.48 4.86 6.61 5.53-9.2 13.36-14.12 24-13.97-.07 3-.73 6.06.66 10.03 1.32-4.02.73-7.1.74-10.13 7.67-.5 15.3-.53 22.97.32 12.2 1.36 23.84 5.77 36.2 6.37 10.15.5 20.19.67 29.27-4.71 3.59-2.13 5.42-.96 7.36 2.12 2.2 3.5 3.24 7.7 6.32 10.69.37.78.38 1.55.04 2.33l-.12 2-.08.81c-8.48-.03-16.95-.14-25.42-.06-5.82.06-11.56 1-17.18 2.5-12.87 3.45-25.38 8.25-38.57 10.48-14.01 2.36-28.02 4.11-40.6-5.12-.04-.1-.05-.24-.11-.32-.04-.06-.16-.05-.24-.08l.35.4c.13.64.58 1.52.32 1.87-.65.85-1.36-.06-2.03-.31-8.02-3.1-7.74-11.89-12-17.57Zm12.13 13.62c.03.1.04.23.1.31.04.05.16.05.23.08l-.33-.39c-.04-.1-.06-.22-.13-.3-.04-.05-.14-.04-.23-.06l.36.36Zm66.67-10.28c-1.59-3.89-4.86-3.71-8.17-3.34-2.55.28-2.98 2.12-2.9 4.25-1.97.43-1.48 1.47-.58 2.51 2.3 2.67 9.85 2.46 11.96-.34.8-1.06.92-2.16-.32-3.07Zm-50.58.67c-1.52 1.4-.86 2.44.45 3.55 2.91 2.44 7.84 2.47 11.04-.01 2.28-1.77 2-2.94-.8-3.54.92-3.29-1.88-3.41-3.63-3.67-3.02-.45-6.04-.1-7.07 3.67h.01ZM624.9 284.29l.12 1.71c-.48.43-1.21.78-1.39 1.3-1.9 5.73-6.05 9.32-11.42 11.35-12.63 4.8-25.93 4.97-39.04 3.68-13.82-1.35-27.58-2.47-41.46-1.88-.87-3.02-.8-6.11-.7-9.2 1.95-1.8 2.25 1.67 3.87 1.17v-3.86l.26-.27c2.37.21 4.6 1 7.04 1.03 8.1.14 15.22-3.09 22.36-6.18 9.58-4.14 18.94-8.86 29.45-10.32 10.05-1.4 19.17.38 26.99 7.34 1.45 1.28 1.51 3.82 3.91 4.14v-.01Zm-16.9-2.31c-3.02-4.04-7.7-3.28-9.9 1.6-1.81 1.8-.41 3.13 1.03 3.54 3.06.87 6.21 1.04 8.57-1.85.63-.76 1.76-1.43.45-2.54 0-.26-.06-.52-.16-.75Zm-39.5 6.55c-3.34.81-1.17 2.25-.2 3.17 2.14 2.06 4.71.93 7.15.65 3.06-.36 3.92-1.85 2.42-4.6.95-1.65.5-2.73-1.37-3.1-3.64-.74-6.48.2-7.99 3.88Zm-25.86 5.57c-1.2.02-2.49.1-2.32 1.53.22 1.93 1.81 2.34 3.51 2.38.98.02 2.07-.13 2.03-1.3-.07-2-1.66-2.43-3.22-2.61Z"/>
  <path fill="#C96730" d="M17.94 334.43c4.26 5.68 3.99 14.46 12.01 17.56.67.26 1.38 1.18 2.03.31.26-.35-.2-1.23-.32-1.87 12.58 9.24 26.6 7.49 40.6 5.13 13.2-2.22 25.7-7.03 38.58-10.48a68.8 68.8 0 0 1 17.17-2.5c8.48-.09 16.96.03 25.43.06-.03.8.04 1.6-.12 2.38-1.85 8.97-2.7 9.21-9.78 7.81-4.91-.97-9.87-1.9-14.85-2.38-11.53-1.09-22.13 2.79-32.84 6.36-15.04 5.02-30.13 10.04-46.24 10.28-6.42.1-12.67-.99-18.66-3.24-12.33-4.63-17.97-17.56-13-29.42ZM531.7 300.45c13.89-.59 27.64.53 41.46 1.88 13.11 1.29 26.4 1.11 39.05-3.68 5.36-2.03 9.51-5.62 11.41-11.34.18-.53.92-.88 1.4-1.31 1.31 8.08-2.33 14.06-8.41 18.7-6.08 4.65-13.27 6.24-20.8 6.8-13.94 1.06-27.4-1.53-40.74-5.1-7.4-1.96-14.63-2.36-21.37 2.2-.62.41-1.41.6-2.47 1.04-.27-3.31-.21-6.27.48-9.2ZM177.66 367.8c-1.34 5.02-4.46 8.98-8.05 12.47-4.2 4.09-9.23 3.6-13.94 1-7.42-4.1-11.83-10.72-14.58-18.58-.21-.6-.62-1.4.1-1.74.48-.24 1.33-.08 1.84.2 2.21 1.18 4.34 2.53 6.55 3.72 9.45 5.07 17.71 1.71 21.3-8.46 1.52-4.31 1.99-8.82 2-13.23 0-4.11 1.58-5.06 5.1-4.54.06 8.96-.15 17.89-3.12 26.5-.97 2.83.65 3.05 2.8 2.66Z"/>
  <path fill="#FCF0D1" d="M196.32 305.8c-.7 2-1.82 2.1-3.18.65-.72-.77-1.27-1.75-2.73-1.2 3.62 8.6 4.77 17.7 5.13 26.95l-.07 1.51c-.1 3.16-.07 6.33-.33 9.48-.13 1.62-.2 3.95-2.41 3.94-2.24-.01-2.64 1.8-3.9 2.73 1.11-17.24-.8-33.95-8.5-49.68-2.94-6.02-7.46-10.72-12.61-15 6.74-3.03 12.08-.54 17.1 3.45 3.08 4.33 7.32 7.79 9.51 12.78.04 1.75 1.54 2.83 1.98 4.4ZM534.87 288.56v3.85c-1.61.5-1.91-2.95-3.86-1.17-1.95-2.93-1.75-6.43-2.92-9.55.53-.2.85-.45.99-.37 12.53 6.86 23.77 2.12 34.73-4.05 12.92-7.27 26.45-11.72 41.51-10.47 8.82.74 16.98 6.41 19.2 13.6.4 1.3.54 2.56.37 3.88-2.4-.31-2.47-2.85-3.91-4.13-7.82-6.96-16.94-8.73-26.99-7.34-10.51 1.46-19.87 6.18-29.45 10.32-7.14 3.1-14.27 6.32-22.36 6.18-2.43-.04-4.67-.82-7.03-1.03l-.54-.3.27.56v.01Z"/>
  <path fill="#C96730" d="M178.03 335.2c-5.26 1.14-5.06 1.11-5.64-4.49-.78-7.5-3.23-14.44-8.5-20.05-3.58-3.8-7.9-5.55-13.26-4.13a45.4 45.4 0 0 0-7.38 2.82c-1.38.63-2.89 2.48-4.2 1.47-1.6-1.21-.2-3.28.39-4.72 1.66-4.13 3.24-8.38 6.77-11.42 7.54-3.03 14.14-1.92 19.6 4.4a35.23 35.23 0 0 1 5.8 9.36 82.48 82.48 0 0 1 6.42 26.76Z"/>
  <path fill="#FCF0D1" d="M509 300.18c-1.32-17.47-8.94-31.98-21.76-44.84 9.54-.74 17.48.58 23.86 7.32 7.91 8.34 11.67 18.34 12.1 29.7-3.04-.7-3.1-3.62-4-5.74-2.82-6.54-5.21-13.3-9.74-18.92-2.25-2.8-4.38-5.87-8.53-7.18.15 1.58.55 2.57 1.61 3.25l.7.83-.07-.05c5.18 10.44 9.53 21.17 11.5 32.73-.96 1.31.51 2.4.33 3.65-2.05.17-4.05-.07-6-.75Z"/>
  <path fill="#C96730" d="M524.55 301.02c.24 14.08-3.18 27.12-11.35 38.7-2.43 3.44-6.17 5.23-10.47 6.72.39-4.15 2.75-7.3 3.67-10.9a80.4 80.4 0 0 0 2.45-22.36c-.04-1.42-.36-2.92.41-4.28l.78 1.87c.8-1.71-.44-4.21 2.32-4.8 1.91-.4 1.77 1.5 2.68 2.23.58 1.46-.44 3.32 1.28 5 1.94-3.32.63-6.7 1.32-9.76 2.28-.9 4.2-2.77 6.91-2.42Z"/>
  <path fill="#FCF0D1" d="M178.03 335.2a82.4 82.4 0 0 0-6.42-26.76 35.14 35.14 0 0 0-5.8-9.37c-5.46-6.3-12.06-7.42-19.6-4.39 6.9-8.06 13.4-8.48 21.24-1.53 7.68 6.81 11.09 15.83 13.29 25.47.84 3.71 1.24 7.52 1.98 11.26.77 3.9-.71 5.68-4.7 5.31l.01.01Z"/>
  <path fill="#F7AE5F" d="M188.84 349.86c1.25-.93 1.65-2.74 3.9-2.73 2.2.01 2.27-2.32 2.4-3.94.26-3.15.24-6.32.33-9.48 1.23 3 1.26 6.39 3.1 9.2l3.2-2.72-.43 8-.35 3.04a.78.78 0 0 0-.08.74c-1.07 3.95-1.49 8.07-3.2 11.85-4.35 1.91-8.2 5-13.1 5.64l4.23-19.61v.01Z"/>
  <path fill="#C96730" d="M184.6 369.47c4.9-.64 8.75-3.72 13.1-5.64-1.33 5.66-3.74 10.9-6.62 15.91-1.74 3.03-9.92 5.75-13.37 4.88-1.02-.26-1.51-.77-.82-1.57 3.52-4 4.83-9.23 7.7-13.59Z"/>
  <path fill="#F7AE5F" d="M524.55 301.02c-2.7-.35-4.63 1.53-6.9 2.42l-.6-6.56c-.15-8.51-3.12-16.27-6.85-23.7-1.65-3.28-3.22-6.96-7.03-8.63l.08.04-.7-.83c-1.07-.68-1.47-1.67-1.61-3.25 4.14 1.3 6.28 4.38 8.53 7.18 4.52 5.64 6.92 12.39 9.73 18.93.9 2.12.96 5.04 4.02 5.73l-.1-.04.76.84c.1 2.63 1.4 5.16.67 7.87Z"/>
  <path fill="#FCF0D1" d="M157.49 324.8a21.56 21.56 0 0 0-6.75-9.1c-.58-.44-1.42-.94-1.07-1.88.34-.88 1.27-.8 2.03-.91 3.7-.58 6.4 1.18 8.58 3.84a27.57 27.57 0 0 1 6.46 18.59c-1.59 2-2.48 1.3-2.9-.8-.47-2.28-.88-4.57-1.24-6.87-.48-3.18-1.8-4.76-5.11-2.88Z"/>
  <path fill="#C96730" d="M166.66 339.97c.75 4.83.12 9.5-1.72 14-1.25 3.02-3.4 4.96-6.82 5.3-2.5.26-3.59-.25-2.15-2.95a34.98 34.98 0 0 0 3.9-13.22c2.21-1.16 5.09-.87 6.78-3.14h.01v.01Z"/>
  <path fill="#F7AE5F" d="M177.66 367.8c-2.14.38-3.76.17-2.8-2.67 2.97-8.6 3.17-17.53 3.12-26.5l.8-.02c.48 2.77-1.87 7.1 3.86 6.97.05 7.8-2.04 15.1-4.98 22.22ZM166.66 339.97c-1.7 2.26-4.57 1.98-6.78 3.13a85.74 85.74 0 0 0-2.39-18.3c3.3-1.88 4.63-.3 5.12 2.88.35 2.3.77 4.6 1.23 6.88.42 2.09 1.32 2.8 2.9.8l-.08 4.61Z"/>
  <path fill="#944717" d="M194.34 301.4c-2.19-4.98-6.43-8.45-9.51-12.78l5.34-1.03c4 4.17 7.86 8.42 9.1 14.34-1.69.2-3.22-1.07-4.94-.53ZM499.3 336.93c-5.03 2.17-9.59 5.56-15.31 6.05-1.15.1-2.29.6-3.93-.68 7.1-3.6 13.56-7.66 20.93-9.96-.31 1.26.35 2.74-.88 3.78l-.85.83.05-.01v-.01ZM201.33 348.19l.44-8 1.72-10.35c2.6.21 2.01 2.49 2.14 3.87.44 4.78.81 9.6.08 14.39-1.5-1.57-2.91 0-4.37.09Z"/>
  <path fill="#F7AE5F" d="M515.04 308.2c-.9-.72-.76-2.63-2.68-2.22-2.76.59-1.53 3.08-2.32 4.8l-.78-1.87-.1-2.05c.47-1.15.67-2.28-.2-3.35l.04-3.33c1.95.68 3.95.92 6 .75l.04 7.28Z"/>
  <path fill="#FCF0D1" d="M182.65 345.58c-5.73.14-3.39-4.2-3.87-6.97l3.87-.85v7.82ZM153.5 341.84l.13-2-.12 2Z"/>
  <path fill="#C96730" d="M508.96 303.5c.88 1.08.68 2.2.2 3.36-.6-1.08-.45-2.22-.2-3.35Z"/>
  <path fill="#944717" d="M200.9 351.98a.78.78 0 0 1 .09-.75c.08.19.17.38.23.58 0 .03-.2.12-.32.17Z"/>
  <path fill="#FCF0D1" d="m523.88 293.15-.76-.83c.46.09.78.3.76.83Z"/>
  <path fill="#C96730" d="M504.3 305.2c-.09-.23-.19-.44-.24-.67-.02-.1.06-.23.1-.35.1.22.24.44.31.68.03.08-.11.22-.17.33Z"/>
  <path fill="#FCF0D1" d="M21.3 330.08c-.17.47-.39.8-.84.22l.84-.22Z"/>
  <path fill="#944717" d="M369.59 317.7c-2.95.28-4.97 2.31-7.34 3.76-8.05 4.94-16.95 5.7-26.07 4.75-15.11-1.56-28.38-8.01-41.18-15.68-11.27-6.75-22.73-12.93-36-15.05-15.76-2.52-31.09-1-46.24 3.64-1.6.49-3.1 1.48-5.5 1.02 6.63-5.13 13.84-7.46 21.56-8.56 1.45.14 2.9.26 4.25-.47l3.7-.37.92-.03 2.95-.19c6.16.65 12.35.81 18.51 1.57 12.2 1.52 23.1 6.17 33.58 12.26 12 6.97 23.9 14.2 37.73 17.1 10.74 2.25 21.3 2.55 30.92-4.03 2.15-1.46 5.55-.89 6.43-4.5.78-3.18 1.07-6.23-.12-9.31-1.96-5.1-8.9-8-15.13-6.38-5.5 1.42-9.13 7.66-8.22 14.16.17 1.25 1.02 2.46.28 3.8-3.8-1.98-5.08-7.53-3.05-12.82 3.27-8.55 13.44-12.3 22.17-8.18 8.56 4.04 11.32 13.3 6.5 21.66-.33.56-.44 1.23-.65 1.84Z"/>
  <path fill="#944717" d="m466.03 305.52 2.3-1.14c4.18-1.5 7.32-4.41 10.33-7.53.82-.86 1.81-1.75 3.08-1.04 1.08.6-.16 1.32-.16 2-7.11 8.95-16.11 14.28-27.77 14.67-12.37.43-23.58-3.53-34.57-8.67-13.17-6.16-25.6-13.9-39.49-18.5-16.2-5.37-32.56-6.79-49.12-1.55-3.16 1-6.41 1.94-9 4-2.11 1.69-3.94.97-5.7.01-7.56-4.08-15.69-6.03-24.17-6.53-1.7-.1-2.54-1.01-3.65-2.03 10.53-.53 20.85-.4 30.28 5.16.84.5 1.88 1.14 2.94.28 7-5.65 15.56-6.25 23.95-7.1 5.9-.58 11.88-.84 17.8.25 15.38 3.23 29.88 8.74 43.97 15.7 9.12 4.5 18.27 9.1 28 12.23 10.27 3.3 20.68 4.6 30.97-.21Z"/>
  <path fill="#944717" d="M380.82 309.8c-.56-3.68 1.65-3.66 4.1-2.9 7.23 2.23 14 5.6 20.57 9.27 9.28 5.17 18.73 9.8 29.33 11.61 20.36 3.48 38.65-.2 53.7-15.33 2.88-2.88 4.53-6.77 8.06-9.73.6 2.88-.53 4.92-1.63 6.89-7.87 14.1-20.78 20.57-35.98 23.3-18.9 3.4-36.16-1.2-52.29-11.08-2.24-1.38-4.61-2.55-6.93-3.82-2.97-1.77-5.85-3.65-8.98-5.18-3.2-1.56-6.72-1.74-9.94-3.04v.01ZM468.36 299.37c-5.04-12.88-14.9-19.21-28.2-21.35-6-.96-11.88-.34-17.8 0-13.98.8-27.64-1.97-41.42-3.49-5.73-.63-11.48-1.15-17.3-2.56 1.94-.25 3.87-.6 5.82-.71 10.07-.58 20.06.38 30.02 1.77 10.67 1.49 21.38 1.2 32.1 1.05 7.3.56 14.56 1.22 21.52 3.9 7.82 3 13.24 8.41 16.57 15.96.85 1.93.26 3.9-1.3 5.43h-.01Z"/>
  <path fill="#C96730" d="M404.61 338.01c-.7-1.76-1.37-3.3-.96-5.52.43-2.3-2.6-3.34-3.96-5.07-.85-1.1-2.32-1.73-3.25-2.8-.66-.77.24-1 .9-1.1l11.24 5.86c14.28 9.03 29.9 11.44 46.4 9.42 2.34-.28 4.68-.53 7.01-.8l-1.72 2.03c-4.67 1.33-9.26 3.24-14.02 3.92-14.38 2.03-28.23-.63-41.64-5.94Z"/>
  <path fill="#944717" d="M240.63 355.98a53.52 53.52 0 0 1-23.63-5.7 14.57 14.57 0 0 1-3.62-2.4c-.8-.76-1.83-1.95-.99-3.12.87-1.2 1.91 0 2.79.36 8.19 3.47 16.39 6.58 25.56 6.3a72.56 72.56 0 0 0 38.74-12.38c1.63-1.08 3.86-3.51 5.35-1.5 1.08 1.46-1.95 3.07-3.38 4.2a63.11 63.11 0 0 1-32.09 13.44c-3.13.38-6.27 1.17-8.73.8Z"/>
  <path fill="#4E2714" d="M404.61 338.01c13.41 5.32 27.26 7.97 41.64 5.94 4.76-.68 9.35-2.58 14.02-3.92l.66 3.11-2.14.38c-.72-.22-1.31-.16-1.59.66-25.69 8.12-49.46 5.06-70.8-12.15-.52-.82-1.66-1.58-.53-2.68 1.07-1.04 1.94-.02 2.77.48 5.15 3.07 10.26 6.2 15.97 8.18Z"/>
  <path fill="#944717" d="M286.73 283.9c.75.18 1.5.35 2.24.54 5.33 3.06 11.45 4.36 16.74 7.57 3.64 2.22 7.06 4.5 9.03 8.46.83 1.69 1.2 3.22-.62 4.5-10.06-11.58-23.29-17.1-38-19.65-12.88-2.22-25.85-1.78-38.83-.95-2.22.15-4.47.02-6.71-.27 18.12-3.56 36.29-4.89 54.52-.64.55.15 1.09.3 1.63.43Z"/>
  <path fill="#FCF0D1" d="M243.88 323.08c.22 1.69 3.75 1.02 2.69 3.13-1.06 2.09-3.42 2.15-5.63 1.53a58.5 58.5 0 0 0-31.26-.4c-4.15 1.1-5.58-.14-5.57-4.06a2.7 2.7 0 0 1 1.8-1.42c10.65-2.55 21.29-3.62 31.91.12 1.96.7 3.83 1.88 6.06 1.1ZM290.1 327.85c-.75 1.78-2.18 1.1-3.37.81-2.62-.6-4.84-2.03-7.05-3.5-8.13-5.37-16.03-11.14-25.14-14.85-3.65-1.49-7.42-2.68-11.1-4.1-.9-.35-2.36-.54-2.2-1.84.08-.58 1.32-1 2.03-1.5l1.34.01c.54.6 1.15.66 1.83.27l4.62.46c4.72 2.3 9.54 4.35 14.12 6.96 8.82 5.04 16.44 11.77 24.93 17.28Z"/>
  <path fill="#944717" d="M243.88 323.08c-2.23.77-4.1-.4-6.06-1.1-10.63-3.74-21.26-2.67-31.91-.12-.82.2-1.4.7-1.8 1.42-2.16.02-2.13-1.6-2.2-3.04-.07-1.28.87-1.92 1.93-2.18 11.31-2.77 22.66-4.11 33.97-.13 1.98.7 3.73 1.98 5.64 2.9 1.27.6.84 1.39.43 2.25ZM346.49 341.6c-1.86 0-3.72.12-5.56-.05-1.1-.1-2.76-.22-2.64-1.76.09-1.15 1.56-1.16 2.62-1.26 1.97-.17 3.96-.55 5.92-.5 10.66.17 19.8-4.21 28.7-9.33 1.3-.75 3.03-2.56 4.12-.88 1.12 1.74-1.1 2.95-2.4 3.96-9.06 6.98-19.48 9.86-30.77 9.82ZM290.1 327.85c-8.47-5.51-16.1-12.25-24.93-17.28-4.57-2.62-9.39-4.67-14.1-6.97.6-.98 1.44-.66 2.38-.57 4.29.37 7.94 2.82 12.1 3.56 8.63 5.43 17.26 10.83 25.07 17.45 2.11 1.8.24 2.63-.52 3.8Z"/>
  <path fill="#FCF0D1" d="M497.6 292.14c1.22 1.51 4.85 1.6 3.79 4.16-.92 2.2-3.8.96-5.73.56-7.07-1.48-14.52-1.94-20.65-6.32-2.02-1.45-5.1-3.05-2.6-6.54l.22.2c-.1.55.1.72.6.48 7.57 3.4 15.25 6.42 23.65 6.96l-.07-.08c-.05.62.36.62.78.6v-.02ZM269.24 327.18c1.13.82.85 1.85.28 2.8-1.95 3.27-3.84 6.6-6.82 9.1-2.71 2.27-3.94 1.95-4.13-1.56-.19-3.41-1.67-3.36-3.99-2.23-2.59 1.27-5.1 2.71-7.71 3.95-1.19.56-2.68 1.76-3.51-.54.97-.65 1.98-1.23 2.89-1.95 6.76-5.37 15.1-6.91 23-9.57ZM408.58 329.38l-11.25-5.87c-3.74-3.37-8.5-5.03-12.86-7.3-2.9-1.5-4.18-3.27-3.64-6.4 3.23 1.3 6.75 1.48 9.94 3.03 3.13 1.53 6.02 3.42 8.99 5.18-2.27 1.65-1.5 2.99.43 4.2 2.18 1.37 4.34 2.78 6.56 4.08 1.22.72 2.08 1.54 1.84 3.08Z"/>
  <path fill="#944717" d="M269.24 327.18c-7.88 2.65-16.23 4.2-22.99 9.56-.9.72-1.92 1.3-2.89 1.96-2.07-.98-.68-2.28-.15-3.25 3.3-5.96 16.37-12.19 23.26-11.1 1.55.24 3.32.44 2.77 2.82Z"/>
  <path fill="#4E2714" d="M319.8 343.63c-7.95 4.77-16.71 6.03-25.77 5.93-1-.01-2.33-.17-2.34-1.56-.01-1.65 1.38-2.26 2.7-2.31 8.62-.36 16.92-2.23 25.1-4.78l.31 2.72Z"/>
  <path fill="#944717" d="M496.89 291.63c-8.4-.54-16.09-3.55-23.64-6.95l-.62-.48-.21-.2c-.65-.7-1.28-1.46-.68-2.43.45-.72 1.2-1.02 2.06-.62 6.58 3.04 13.92 4.18 20.15 8.1a8.8 8.8 0 0 1 2.95 2.59h-.01Z"/>
  <path fill="#C96730" d="m203.49 329.84-1.72 10.35-3.2 2.73c-1.85-2.82-1.88-6.22-3.1-9.2l.07-1.52c2.73-.52 5.02-2.5 7.95-2.36ZM265.56 306.6c-4.16-.75-7.82-3.2-12.1-3.57-.94-.08-1.78-.4-2.4.58l-4.6-.46c-.56-.46-1.19-.5-1.84-.26l-1.35-.01c-1.88-2.21-4.86-1.25-7.09-2.43 9.4-.6 18.64.18 27.64 3.12-.2 1.46 1.7 1.7 1.74 3.03Z"/>
  <path fill="#944717" d="m460.93 343.15-.66-3.12 1.72-2.02c4.98-.4 9.47-2.55 14.18-3.92-4.13 4.62-9.64 6.92-15.24 9.06Z"/>
  <path fill="#4E2714" d="M218.87 334.55c1.96.18 3.44 1.11 3.4 3.34-.02 1.9-1.31 2.86-3.12 2.65-2.08-.23-3.92-1.14-3.82-3.6.09-2.01 1.78-2.3 3.53-2.4h.01Z"/>
  <path fill="#944717" d="M239.22 307.26c2.92.61 7.74.35 7.42 3-.32 2.74-4.58.46-7.11.36-.14 0-.28-.01-.4-.05-1.33-.43-3.56-.45-3.43-2.03.17-1.97 2.43-.67 3.5-1.27h.02v-.01Z"/>
  <path fill="#4E2714" d="M355.53 312.3c-1.93-.13-3.14-.8-3.3-2.55-.17-1.82.9-2.71 2.58-2.79 1.66-.07 2.83.75 3 2.47.19 1.81-1.01 2.53-2.28 2.86Z"/>
  <path fill="#944717" d="M462 321.92c-3.52 3.74-6.03 4.06-10.26 1.4 3.24-.33 6.28-1.78 10.26-1.4ZM319.8 343.63l-.3-2.72c1.78-1.36 3.82-1.95 6.48-2.44-1.33 3.15-3.7 4.23-6.18 5.17Z"/>
  <path fill="#C96730" d="M194.34 301.4c1.72-.54 3.25.74 4.94.54l.63 3.13-3.59.75c-.43-1.57-1.94-2.66-1.98-4.4v-.01Z"/>
  <path fill="#944717" d="M497.6 292.14c-.43.02-.84.04-.78-.58l.78.58Z"/>
  <path fill="#F7AE5F" d="M466.03 305.52c-10.3 4.8-20.7 3.5-30.97.2-9.72-3.12-18.88-7.72-28-12.23-14.08-6.95-28.59-12.46-43.96-15.69 5.55-1.19 10.97.37 16.32 1.3 17.32 2.96 34.61 5.7 52.3 4.4 5.45-.4 10.75.53 15.9 2.53 7.37 2.88 12.83 7.63 15.93 15.01.65 1.56 1.65 2.99 2.48 4.48Zm-33.3-13.87c-1.74.09-3.49.3-3.5 2.38 0 2.29 1.73 3.05 3.75 3.13 1.8.07 3.22-.77 3.21-2.65 0-2.15-1.77-2.62-3.46-2.86Z"/>
  <path fill="#C96730" d="M495.26 281.86c-17.22-10.48-35.6-13.88-55.6-14.09 10.77-6.74 53.21 1.07 55.6 14.1Z"/>
  <path fill="#F7AE5F" d="M233.07 291.11c-1.35.73-2.8.62-4.25.47 1.3-1.28 2.78-.87 4.25-.47ZM286.73 283.9l-1.63-.44c.7-.46 1.3-.47 1.63.43ZM237.7 290.71l-.93.03c.29-.5.6-.55.92-.03Z"/>
  <path fill="#4E2714" d="M260.51 366.6a10.39 10.39 0 0 1-5.1 2.8c-10.08 2.2-20.23 3.77-30.6 3.25a45.39 45.39 0 0 1-18.59-4.95c-1.18-.6-2.67-1.25-1.84-2.9.78-1.55 2.11-.47 3.13-.13 12.58 4.12 25.42 3.91 38.41 2.77 4.63-.4 9.28-1.72 14.6-.83v-.01ZM356.85 357.75c10.6-5.64 21.48-10.57 32.97-14.08-9.12 9-20.3 13.26-32.97 14.08Z"/>
  <path fill="#944717" d="M457.2 344.2c.28-.84.87-.9 1.6-.67l-1.6.66Z"/>
  <path fill="#FCF0D1" d="M56.85 338.45c2.8.6 3.08 1.77.8 3.53-3.2 2.49-8.13 2.46-11.04.01-1.31-1.1-1.97-2.15-.45-3.55 3.56 2.07 7.12 2.18 10.69.01Z"/>
  <path fill="#4E2714" d="M85.67 338.68c-.08-2.13.35-3.96 2.9-4.25 3.3-.37 6.58-.55 8.17 3.34-3.61 1.3-7.24 2.33-11.07.9ZM56.85 338.45c-3.57 2.17-7.13 2.06-10.69-.01 1.03-3.76 4.05-4.11 7.07-3.66 1.74.26 4.55.38 3.62 3.67Z"/>
  <path fill="#FCF0D1" d="M85.67 338.68c3.83 1.42 7.46.39 11.07-.9 1.23.9 1.11 2 .31 3.07-2.1 2.8-9.66 3.01-11.95.34-.9-1.05-1.4-2.09.58-2.52Z"/>
  <path fill="#C96730" d="m50.07 322.82 1.4-.11c-.02 3.03.57 6.12-.74 10.13-1.39-3.97-.73-7.01-.65-10.02ZM30.06 348.05l-.35-.36c.08.02.19.01.23.06.07.08.09.2.13.3ZM30.07 348.05l.32.38c-.07-.02-.19-.01-.22-.07-.07-.09-.08-.2-.11-.3ZM31.65 350.43l-.35-.38c.08.02.2.01.24.07.06.09.08.21.1.32h.01Z"/>
  <path fill="#4E2714" d="M568.5 288.53c1.51-3.68 4.36-4.62 8-3.89 1.88.38 2.32 1.46 1.37 3.11-3.04 1.3-5.99 3.54-9.37.78Z"/>
  <path fill="#FCF0D1" d="M568.5 288.53c3.37 2.76 6.33.52 9.37-.78 1.5 2.75.64 4.24-2.42 4.6-2.44.28-5.02 1.41-7.16-.65-.96-.92-3.12-2.36.22-3.17ZM608.14 282.73c1.31 1.1.18 1.77-.45 2.54-2.36 2.9-5.5 2.73-8.57 1.85-1.44-.42-2.84-1.74-1.03-3.54l3.64.55c2.34.48 4.32-.74 6.4-1.4h.01Z"/>
  <path fill="#4E2714" d="m601.74 284.13-3.64-.55c2.2-4.88 6.88-5.64 9.9-1.6-2.26.23-4.92-.71-6.25 2.16h-.01Z"/>
  <path fill="#944717" d="M542.64 294.1c1.56.18 3.15.6 3.22 2.61.03 1.17-1.05 1.33-2.03 1.3-1.7-.04-3.3-.45-3.51-2.38-.17-1.42 1.13-1.51 2.32-1.53ZM601.74 284.13c1.34-2.87 4-1.92 6.24-2.15.1.24.16.5.16.75-2.09.66-4.06 1.89-6.4 1.4Z"/>
  <path fill="#F7AE5F" d="m534.87 288.55-.27-.55.53.29-.26.26Z"/>
  <path fill="#944717" d="M503.17 264.55c3.8 1.67 5.37 5.35 7.02 8.63 3.74 7.43 6.71 15.19 6.87 23.7l-2.38.4c-1.97-11.57-6.31-22.3-11.5-32.73Z"/>
  <path fill="#4E2714" d="m514.67 297.28 2.38-.4.6 6.57c-.7 3.06.61 6.44-1.33 9.76-1.72-1.67-.7-3.54-1.28-5l-.04-7.28c.18-1.24-1.3-2.33-.33-3.64v-.01Z"/>
  <path fill="#944717" d="m502.55 263.77.7.83-.7-.83Z"/>
  <path fill="#F7AE5F" d="M244.62 302.88c.66-.23 1.28-.2 1.83.27-.68.39-1.3.33-1.83-.27ZM472.63 284.2l.6.48c-.5.23-.7.06-.6-.47Z"/>
  <path fill="#4E2714" d="M432.73 291.65c1.7.24 3.47.7 3.47 2.86 0 1.88-1.41 2.72-3.22 2.65-2.02-.08-3.74-.84-3.74-3.13 0-2.09 1.75-2.3 3.5-2.38Z"/>
  <path fill="#472714" d="M167.37 209.6c-1.09-.85-2.02-2.3-2.81-4.38-3.12-8.06-6.27-16.11-9.44-24.16-.93-2.02-2.31-5.43-4.19-10.22-4.2-10.03-8.84-21.4-13.95-34.08l-3.36-8.28c.94 5.63 1.89 13.7 2.99 24.18a249.98 249.98 0 0 0 4.18 26.22l.4.97.74 3.29a31.25 31.25 0 0 1 1.25 8c-.1 3.05-1.36 5.07-3.78 6.08-4.16 1.72-8.43-2.4-12.91-12.44a95.74 95.74 0 0 0-9.93-17 224.27 224.27 0 0 0-17.12-20.51 895.63 895.63 0 0 0-14.4-15.04c3 6.34 5.97 12.7 8.94 19.05 2.77 5.67 8.4 16.33 16.63 32.1 1.83 3.53 3.65 7.06 5.46 10.6 3.54 7.19 7.03 14.39 10.5 21.6a9.59 9.59 0 0 1 .3 7.18c-2.75 1.26-5.03 1.35-6.86.2-1.84-1.13-3.52-3.27-5.06-6.42l-5.98-13.06a245.49 245.49 0 0 0-5.77-12.98 3133.6 3133.6 0 0 0-31.48-60.14c-2.32-4.46-5.68-11.2-10.1-20.23 1.38-1.71 2.78-3.41 4.2-5.11 1.14-.41 2.54-.32 4.2.26 1.64.6 3.75 1.78 6.31 3.56 6.62 4.95 17.45 15.98 31.65 33.53a59.61 59.61 0 0 1 4.66 6.21c4.32 5.53 7.46 9.8 9.5 12.74 2.74 3.72 5.46 7.47 8.15 11.22l-1-5.83c-.74-4.88-1.45-9.77-2.14-14.65-1.3-8.55-2.47-16-3.57-22.35-1.1-6.35-2.4-13.18-3.92-20.48a217.3 217.3 0 0 0-5.68-21.3l-.4-.97a4.98 4.98 0 0 1 1.12-4.28 10.2 10.2 0 0 1 4.58-3.12 5.45 5.45 0 0 1 3.93.05c1.34.52 2.2 1.25 2.6 2.23 5.23 13.03 13.67 32.29 24.75 57.99a923.8 923.8 0 0 1 15.3 37.16 480.72 480.72 0 0 1 8.02 21.14c.9 2.53 1 5.03.35 7.49-.66 2.46-1.82 3.99-3.52 4.6-1.13.42-2.23.2-3.32-.64l-.02.02ZM226.43 188.94c-1.5-.47-2.51-1.78-3.07-3.93-.87-3.4-2.94-9.01-6.32-16.84l-1.68-3.36c-6.32.7-12.63 1.51-18.95 2.43.05 2.79.59 8.28 1.67 16.5.95 5.68.94 9.64-.02 11.88a4.41 4.41 0 0 1-3 2.57c-1.4.43-2.8.41-4.22-.06-1.42-.46-2.34-1.3-2.74-2.53l.07-.94-.04-.73c-1.64-30.99-4.09-61.13-8.3-90.32-.14-.44-.32-1.22-.52-2.31-.2-1.1-.54-2.67-1.04-4.72-.9-4.23-1.5-7.65-1.8-10.24-.28-2.59-.06-4.66.68-6.2 2.4-.68 4.81-1.34 7.22-1.98 2-.53 3.8-.62 5.44-.26 1.63.36 2.64 1.22 3.04 2.57 2.48 8.53 7.66 20.83 15.08 37.05 7.38 16.71 11.73 28.66 13.53 35.67.17.68.93 2.36 2.27 5.05 1.27 2.46 2 4.09 2.2 4.88.2.8 1.66 4.05 4.33 9.79 2.41 5.2 3.77 8.6 4.15 10.2l.04.16c.58 2.5 0 4.31-1.71 5.43-2.72.64-4.81.73-6.3.26v-.02Zm-16.3-36c-2.78-10.15-7.38-22.84-14.1-37.98-2.38-5.66-4.78-11.3-7.23-16.94 2.02 27.9 4.38 48.81 6.46 62.8 2.2.6 7.9-.1 17.15-1.77a31.37 31.37 0 0 1-2.27-6.11ZM247.18 161.56a4372.1 4372.1 0 0 0-5.38-27.16c-1.6-8.01-3.5-17-5.71-26.91-.82-3.65-2.49-9.22-5.09-16.68-2.62-8.18-4.18-13.17-4.61-15-.35-1.47.12-2.94 1.43-4.4a8.46 8.46 0 0 1 4.78-2.72 39.67 39.67 0 0 1 15.16.02c5.04.99 9.67 2.84 13.83 5.52 8.85 5.9 15 13.02 18.64 21.16a45.12 45.12 0 0 1 4.12 16.62l.48 4.71 1.35 9.55c1.04 7.4 1.58 13.28 1.66 17.62a53.13 53.13 0 0 1-2.22 16 42.99 42.99 0 0 1-8.77 14.49 55.6 55.6 0 0 1-7.49 6.49c-4.31.7-8.62 1.46-12.9 2.28-3.1.57-6.14-6.61-9.29-21.6h.01v.01Zm22.03 8.43a17.5 17.5 0 0 0 4.53-5.77 35.27 35.27 0 0 0 2.33-7.51c.62-2.99.99-5.84 1.08-8.56.33-5.36.23-10.77-.36-16.24-.09-1.4-.34-3.43-.76-6.08-5.37-34.85-17-51.98-34.14-50.48.1 5.32.87 11.36 2.28 18.11 1.5 7.21 4.7 19.7 9.28 37.51A578.87 578.87 0 0 1 262 168.8l.75 4.14a13.6 13.6 0 0 0 6.45-2.94ZM415.67 173.41a7015.19 7015.19 0 0 0 1.91-22.34c.48-5.83.66-13.5.43-23.03-.29-10.7-.37-18.05-.1-22.01l1.12-10.81c.48-3.13.85-6.67 1.1-10.64-.67 1.47-3.56 9.3-8.4 23.56-4.8 13.8-9.5 26.57-14.09 38.33-4.43 11.3-7.72 16.93-10.1 16.81-2.39-.1-4.28-.85-5.7-2.25-1.4-1.4-2.1-3.26-2.04-5.6.1-5.13-1.87-16.14-6.58-32.96-4.75-16.81-9.53-30.53-13.99-41.16-.23 6.6-.45 13.2-.7 19.81-.65 16.71-1.05 30.62-1.22 41.72-.05 10.75-.07 18.11 0 22.08 0 .93.08 1.81.22 2.62l.03 2.46c.02 1.99-.4 3.47-1.23 4.47-.85 1-2.43 1.5-4.75 1.54-1.22.02-2.39-.4-3.51-1.25-1.12-.85-1.7-1.8-1.74-2.85-.38-11.91-.1-29.8.93-53.66 1.03-23.86 1.29-41.75.68-53.66a5.3 5.3 0 0 1-1.5-3.3c-.07-1.4.7-2.5 2.37-3.29 1.66-.79 3.67-1.2 6.04-1.21 1.9-.01 5.74 5.45 11.05 16.48a314.8 314.8 0 0 1 15 37.66c4.62 14.07 7.24 24.26 8.35 30.5 1.14-3.1 2.1-5.97 2.85-8.62l1.35-4.14a517.48 517.48 0 0 1 15-43.47c3.07-7.86 6.07-13.96 8.95-18.28 2.9-4.69 5.48-6.91 7.71-6.7 2.08.2 3.94.83 5.58 1.88 1.64 1.06 2.41 2.29 2.31 3.69-.62 8.4-1.1 21.04-1.7 37.9-.37 15.73-1.07 27.88-1.9 36.48l-1.1 9.22-1.31 9.2c-.15 1.4-.17 3.5-.08 6.34l-.08 6.16a238.88 238.88 0 0 1 0 3.53c.45 1.59.64 2.73.56 3.42a8.12 8.12 0 0 1-2.42 5.01 5.54 5.54 0 0 1-4.62 1.77c-3.77-.4-5.31-4.19-4.68-11.4ZM454.6 181.09a5.48 5.48 0 0 1-1.54-4.16l.7-4.51.52-3.46c.03-1.06.15-2.29.36-3.68.37-2.42.73-6.15 1.07-11.19.42-3.72.82-7.44 1.22-11.16.8-5.67 2.2-14.08 4.15-25.26 1.93-9.98 3.35-18.4 4.24-25.24.21-1.62.32-4.1.3-7.4 0-3.44.09-5.91.28-7.42 1.02-8.23 4.63-11.89 10.86-10.81 4.89.84 10.45 2.63 16.62 5.4 6.17 2.8 9.02 5.29 8.66 7.35-.2 1.16-1.02 2.08-2.43 2.8-1.4.72-3.02 1.19-4.86 1.4a96.21 96.21 0 0 0-16.04-6.65 98.3 98.3 0 0 1-.85 7.51c-.68 4.63-1.37 8.78-2.06 12.45-1.25 5.48-2.08 9.6-2.5 12.38l.2 2.89 3.35.43c1.12.1 2.51.3 4.17.61 6.65 1.29 9.67 3.62 9.08 6.83-.24 1.27-1.05 2.2-2.43 2.81a8.12 8.12 0 0 1-4.93.34 39.01 39.01 0 0 1-5.67-1.45c-1.7-.33-3.4-.64-5.11-.95-.2 3.05-.75 7.47-1.67 13.23a493.46 493.46 0 0 1-2.71 15.54 341.93 341.93 0 0 0-3.18 15.63c-1.08 6.46-1.5 9.7-1.25 9.75 2.06.32 4.13.65 6.2 1 2.14.29 4.7.74 7.7 1.36 4.74 1 6.82 2.9 6.25 5.64-.33 1.6-1.36 2.66-3.08 3.19a11.8 11.8 0 0 1-5.87.1 562.79 562.79 0 0 0-15.66-3 7.02 7.02 0 0 1-4.08-2.31h-.01ZM509.32 169.75c2.3-8.94 4.58-17.88 6.84-26.84 2.01-7.92 4.17-16.84 6.43-26.76.83-3.65 1.7-9.4 2.55-17.27 1.13-8.52 1.86-13.7 2.25-15.53.32-1.48 1.4-2.6 3.27-3.33a8.9 8.9 0 0 1 5.67-.32 42.5 42.5 0 0 1 14.18 6.77 41.3 41.3 0 0 1 10.56 11.16c5.75 9.26 8.44 18.45 8.32 27.41a43.68 43.68 0 0 1-1.9 12.87 40 40 0 0 1-1.46 3.95l-1.6 4.45-2.9 9.2c-2.25 7.14-4.3 12.68-6.13 16.62a51.03 51.03 0 0 1-9.08 13.4 43.25 43.25 0 0 1-14.63 9.06c-2.7.99-6.02 1.8-9.9 2.48-4.4-1.3-8.78-2.55-13.18-3.75-3.18-.86-2.89-8.69.72-23.56h-.01Zm17.06 17.44c2.44-.55 4.7-1.6 6.8-3.15 1.77-1.4 3.6-3.31 5.5-5.72 1.88-2.4 3.47-4.8 4.75-7.21a91.77 91.77 0 0 0 6.76-14.76c.53-1.3 1.18-3.24 1.95-5.82 10.16-33.77 6.68-54.42-10.02-60.7a94 94 0 0 0-5.79 17.3c-1.74 7.17-4.21 19.82-7.7 37.9-3.12 16-6.02 28.6-8.52 37.85l-1.1 4.06c2.48.72 4.93.8 7.37.25ZM174.04 585.49c-.76-1.32-1-3.09-.73-5.3.97-8.62 1.98-17.23 3.03-25.84.15-2.22.56-5.9 1.25-11a913.7 913.7 0 0 1 4.8-36.57l1.34-8.84a315.24 315.24 0 0 1-9.8 22.26c-4.6 9.84-8.09 17.97-10.4 24.43-.04.35-.1.7-.15 1.04l-1.14 3.18a26.64 26.64 0 0 1-3.34 7.38 6.8 6.8 0 0 1-7.35 2.78c-5.2-1.1-6.88-7.13-4.92-17.96 1.07-6 1.5-12.58 1.38-19.75-.14-7.17-.77-16.11-1.69-26.8a855.7 855.7 0 0 1-1.61-20.65c-1.7 6.8-3.36 13.62-5 20.44-1.36 6.17-3.63 18.03-6.52 35.63-.66 3.93-1.3 7.87-1.95 11.8-1.43 7.91-2.82 15.82-4.17 23.74-.46 2.41-1.97 4.34-4.56 5.74-3.7-.93-6.07-2.48-7.1-4.63-1.03-2.14-1.17-4.94-.45-8.38l3.43-13.98a233.65 233.65 0 0 0 3.66-13.73 2462.92 2462.92 0 0 1 14.67-66.36 736.67 736.67 0 0 1 5.9-21.83l5.58-1.4c.94.36 1.74 1.26 2.42 2.7a31.35 31.35 0 0 1 1.93 6.55c1.43 7.83 2.19 22.94 3.25 45.48.2 3.17.26 5.75.15 7.77a632 632 0 0 1 .62 15.95c.23 4.65.49 9.31.77 13.98l2.42-5.41c2.12-4.45 4.21-8.92 6.29-13.39a473.04 473.04 0 0 0 16.33-40.21 244.52 244.52 0 0 0 6.32-21.1l.18-1.04a5.24 5.24 0 0 1 2.8-3.14 7.42 7.42 0 0 1 4.56-.51c1.09.19 1.98.82 2.68 1.88.7 1.06.97 2.12.8 3.16-2.14 13.85-4.76 34.68-7.14 62.6a3915.15 3915.15 0 0 1-3.37 40.16 594.64 594.64 0 0 1-1.99 22.6 10.25 10.25 0 0 1-3.4 6.75c-2.01 1.82-4.14 2.54-6.38 2.17a4.6 4.6 0 0 1-3.39-2.36ZM230.25 590.5a24.53 24.53 0 0 1-7.61-8.6 57.96 57.96 0 0 1-6.32-24.17c-.7-8.09-.69-15.8-.06-23.15.12-1.4.28-2.56.5-3.47l.28-3.15c.05-.58 0-.88-.13-.9l.28-3.14 1.31-12.21c.48-3.71 1.57-9.58 3.27-17.62a56.83 56.83 0 0 1 5.97-15.72c1.1-2.23 2.4-3.88 3.88-4.95a6.86 6.86 0 0 1 4.83-1.35c4.97.49 9.36 1.72 13.25 3.71 3.88 2 7.13 4.58 9.77 7.78a43.06 43.06 0 0 1 6.09 11.12 63.75 63.75 0 0 1 3.57 13.76c.7 4.95 1.04 10.16.98 15.66l-.01 1.4c-.04 3.63 0 6.91.13 9.84.05 3.34.1 6.67.17 10.01.14 33.66-9.38 50.41-29.54 48.94a21.04 21.04 0 0 1-10.62-3.79Zm17.27-5.68a14.75 14.75 0 0 0 5.16-6.62 54.8 54.8 0 0 0 5.23-19.03c.8-5.93 1.22-11.06 1.3-15.4.1-5.26-.24-12.19-.94-20.77-.55-9.05-.69-15.8-.53-20.24l.12-3.15a19 19 0 0 0-4.38-11.88 14.83 14.83 0 0 0-10.61-5.75c-4.28-.37-7.3 1.61-9.08 6.01-1.57 3.49-2.6 8.08-3.07 13.79a63.5 63.5 0 0 0-.24 5.61l-.35 4.73-1 8c-.45 2.43-.78 5.1-.99 8.02-.44 6.3-.66 12.57-.63 18.8 0 8.82.92 17.5 2.85 26.02 1.9 8.88 5.23 13.52 9.81 13.87 2.66.21 5.11-.47 7.35-2.02ZM324.2 586.91a78.1 78.1 0 0 1-8.2-18.48 848 848 0 0 1-1.9-5.91c-5.2-16.58-8.09-26.07-9.3-28.39l-2.43.03c.15 3.4.21 6.49.2 9.3l.46 9.64c.77 15.66 2.84 27.87 6.23 36.57l-2.1 4.78c-2.08.04-4.14.07-6.2.08l-3.03-2.6-.38-11.77c-.52-10.53-1.92-26.49-3.76-47.88-1.74-22.81-2.38-38.76-2.47-47.88-.05-5.6 1.98-8.4 6.05-8.41 6.66-.03 12.14 1.47 16.56 4.6 4.43 3.13 6.85 7.57 7.2 13.4.25 4.09.51 8.17.78 12.26a22.3 22.3 0 0 1-.58 6.08c-.5 2.3-1.1 4.17-1.8 5.6-1.11 2.15-2.23 4.3-3.37 6.44l-2.89 5.36 1.26 4.17c1.2 4.1 2.43 8.22 3.68 12.34a195.41 195.41 0 0 0 7.36 21.64 72.65 72.65 0 0 0 8.3 14.86l1.53 2.02c1.69 2.24 2.63 4.06 2.78 5.45.13 1.17-.2 2.21-.99 3.14a4.55 4.55 0 0 1-3.38 1.51c-3.24.18-6.48-2.47-9.6-7.96v.01Zm-14.42-72.1c1.75-5.82 2.48-11.2 2.24-16.1a36.77 36.77 0 0 0-1.98-10.46 8.5 8.5 0 0 0-3.26-4.22 9.46 9.46 0 0 0-5.37-1.41l-.36.88-.33 1.59c.3 6.89.62 13.78.98 20.67.45 6.07.83 12.67 1.12 19.8 2.88-1.32 5.22-4.9 6.97-10.74ZM439.7 575.98a2319.76 2319.76 0 0 1-5.57-21.78c-1.43-5.67-3.77-13-6.9-22.03-3.55-10.13-5.69-17.15-6.58-21.02l-2.03-10.68a136.2 136.2 0 0 0-1.96-10.52c-.17 1.58-.44 9.88-1.04 24.88-.7 14.55-1.9 28.1-3.62 40.63-1.68 12.06-3.98 18.32-6.67 18.75-2.69.44-5 .12-6.88-.95a7.01 7.01 0 0 1-3.48-5.07c-.95-5.07-5.56-15.43-13.1-31.27-7.52-15.85-13.61-28.9-18.67-39.03.48 6.6.98 13.18 1.48 19.77a1172.1 1172.1 0 0 0 3.68 41.6c1.3 10.68 2.3 17.98 2.91 21.92.15.93.36 1.79.63 2.58l.38 2.43c.32 1.97.04 3.5-.82 4.6-.87 1.08-2.7 1.79-5.47 2.07a7.7 7.7 0 0 1-4.36-.89c-1.44-.74-2.22-1.64-2.38-2.68-1.65-11.83-2.96-29.69-3.9-53.56s-2.05-41.72-3.35-53.57a5.66 5.66 0 0 1-1.46-3.2c-.15-1.4.44-2.53 1.76-3.43 1.32-.9 2.96-1.44 4.9-1.65 1.59-.17 5.1 4.97 10.95 15.31a1788.3 1788.3 0 0 1 19.22 35.09c7 13.03 12.05 22.4 14.63 28.26.48-3.28.78-6.3.93-9.04l.38-4.34a1343.5 1343.5 0 0 1 3.6-45.7c.76-8.34 1.73-14.95 2.97-19.85 1.16-5.24 2.6-8.03 4.39-8.4a8.71 8.71 0 0 1 4.82.3c1.56.56 2.5 1.52 2.82 2.89 1.9 8.2 5.13 20.4 9.94 36.57 4.67 15.01 8.23 26.67 10.44 35.04l2.2 9.03 2.01 9.08a44.38 44.38 0 0 0 2.3 5.96c.74 1.93 1.5 3.85 2.26 5.77l.98 2.3c.22.55.36.88.39 1 1.11 1.3 1.77 2.28 1.96 2.96.54 1.9.3 3.77-.7 5.57a6.72 6.72 0 0 1-4.54 3.37c-4.46 1-7.62-2.05-9.45-9.07ZM494.61 564.2a23.9 23.9 0 0 1-9.98-5.2 58.73 58.73 0 0 1-14.49-20.18 139.28 139.28 0 0 1-8.48-21.5c-.4-1.35-.67-2.48-.8-3.42l-.9-3.02c-.17-.56-.32-.83-.45-.8l-.9-3.02-3.25-11.83c-.92-3.63-2.07-9.5-3.48-17.59a58.97 58.97 0 0 1-.37-16.8c.17-2.46.73-4.47 1.66-6a6.49 6.49 0 0 1 3.82-3.02 33.99 33.99 0 0 1 13.2-1.37c4.2.45 8.06 1.67 11.6 3.69a43.22 43.22 0 0 1 9.54 8.13 65.1 65.1 0 0 1 8.25 11.5c2.44 4.33 4.65 9.06 6.62 14.2l.5 1.3a201.3 201.3 0 0 0 3.74 9.1c1.26 3.09 2.54 6.17 3.82 9.25 12.5 31.23 10.05 50.27-8.7 56.25a19.85 19.85 0 0 1-10.95.35v-.01Zm13.5-11.56a14.91 14.91 0 0 0 2.23-8.03 56.19 56.19 0 0 0-2.26-19.6 142.23 142.23 0 0 0-4.47-14.78c-1.84-4.94-4.7-11.25-8.47-18.98-3.8-8.21-6.4-14.43-7.88-18.62l-1.04-2.98a19.19 19.19 0 0 0-8.28-9.45c-3.8-2.2-7.63-2.7-11.6-1.49-3.96 1.21-5.94 4.15-5.93 8.9-.14 3.8.6 8.45 2.28 13.93.65 2.13 1.26 3.9 1.82 5.31l1.4 4.53 2.02 7.8a74.57 74.57 0 0 0 2.03 7.82 255.7 255.7 0 0 0 6.28 17.72c3.22 8.2 7.22 15.93 12.06 23.15 4.96 7.56 9.66 10.66 13.92 9.32 2.47-.77 4.44-2.3 5.89-4.55ZM578.45 526.62a78.53 78.53 0 0 1-14.32-14.17l-3.93-4.8c-10.87-13.5-16.99-21.27-18.94-22.99l-2.2.92c1.4 3.1 2.6 5.95 3.63 8.56l3.97 8.8c6.49 14.27 12.88 24.85 19.19 31.7l-.15 5.21a637.7 637.7 0 0 1-5.61 2.34l-3.72-1.32-4.69-10.78c-4.35-9.6-11.53-23.91-21.08-43.13-9.98-20.56-16.44-35.16-19.88-43.6-2.1-5.2-1.3-8.52 2.36-10.01 6-2.45 11.5-3.04 16.65-1.74 5.16 1.3 9 4.54 11.48 9.83l5.24 11.1a22.65 22.65 0 0 1 1.73 5.85c.4 2.33.54 4.28.44 5.87-.21 2.4-.44 4.8-.67 7.2l-.65 6.04 2.69 3.42c2.61 3.38 5.24 6.76 7.9 10.12a195.3 195.3 0 0 0 14.73 17.41 73.3 73.3 0 0 0 15.23 12.08c2.38 1.47 3.9 2.81 4.56 4.06.55 1.03.65 2.12.27 3.27a4.48 4.48 0 0 1-2.54 2.65c-2.89 1.36-6.83.07-11.71-3.88l.02-.01Zm-39.8-61.7c-.57-6.06-1.9-11.32-3.93-15.79a37.26 37.26 0 0 0-5.66-9 8.46 8.46 0 0 0-4.5-2.74 8.92 8.92 0 0 0-5.38.65v.95c.1.53.2 1.06.28 1.59 2.8 6.3 5.65 12.59 8.51 18.86a596.08 596.08 0 0 1 8.33 17.99c2.13-2.28 2.9-6.46 2.35-12.52Z"/>
</svg>